<svg width="18" height="12" viewBox="0 0 18 12" fill="none" xmlns="http://www.w3.org/2000/svg">
<path fill-rule="evenodd" clip-rule="evenodd" d="M0.75 1.1875C0.75 0.807804 1.0578 0.5 1.4375 0.5H16.5625C16.9422 0.5 17.25 0.807804 17.25 1.1875C17.25 1.5672 16.9422 1.875 16.5625 1.875H1.4375C1.0578 1.875 0.75 1.5672 0.75 1.1875ZM0.75 6C0.75 5.6203 1.0578 5.3125 1.4375 5.3125H16.5625C16.9422 5.3125 17.25 5.6203 17.25 6C17.25 6.3797 16.9422 6.6875 16.5625 6.6875H1.4375C1.0578 6.6875 0.75 6.3797 0.75 6ZM0.75 10.8125C0.75 10.4328 1.0578 10.125 1.4375 10.125H9C9.3797 10.125 9.6875 10.4328 9.6875 10.8125C9.6875 11.1922 9.3797 11.5 9 11.5H1.4375C1.0578 11.5 0.75 11.1922 0.75 10.8125Z" fill="white"/>
</svg>
