<svg width="53" height="34" viewBox="0 0 53 34" fill="none" xmlns="http://www.w3.org/2000/svg">
<rect width="52.7562" height="33.9984" rx="5" fill="#FFD9D9"/>
<path fill-rule="evenodd" clip-rule="evenodd" d="M4.75 16C4.75 15.4477 5.19772 15 5.75 15H39.75C40.3023 15 40.75 15.4477 40.75 16C40.75 16.5523 40.3023 17 39.75 17H5.75C5.19772 17 4.75 16.5523 4.75 16Z" fill="white"/>
<path fill-rule="evenodd" clip-rule="evenodd" d="M4.75 9C4.75 8.44772 5.19772 8 5.75 8H23.75C24.3023 8 24.75 8.44772 24.75 9C24.75 9.55228 24.3023 10 23.75 10H5.75C5.19772 10 4.75 9.55228 4.75 9Z" fill="#3E3E3E"/>
<path fill-rule="evenodd" clip-rule="evenodd" d="M4.75 22C4.75 21.4477 5.19772 21 5.75 21H32.75C33.3023 21 33.75 21.4477 33.75 22C33.75 22.5523 33.3023 23 32.75 23H5.75C5.19772 23 4.75 22.5523 4.75 22Z" fill="white"/>
<path fill-rule="evenodd" clip-rule="evenodd" d="M4.75 28C4.75 27.4477 5.19772 27 5.75 27H32.75C33.3023 27 33.75 27.4477 33.75 28C33.75 28.5523 33.3023 29 32.75 29H5.75C5.19772 29 4.75 28.5523 4.75 28Z" fill="white"/>
</svg>
