<svg width="74" height="59" viewBox="0 0 74 59" fill="none" xmlns="http://www.w3.org/2000/svg">
<path opacity="0.3" d="M32.7015 7.45199L19.0675 32.9155L11.649 34.9205C12.451 33.3165 13.3867 31.9798 14.456 30.9105C15.659 29.8412 16.9288 29.3065 18.2655 29.3065C21.3398 29.3065 24.1468 30.6432 26.6865 33.3165C29.3598 35.8562 30.6965 39.131 30.6965 43.141C30.6965 47.2847 29.2262 50.8937 26.2855 53.968C23.3448 57.0423 19.8027 58.5795 15.659 58.5795C11.649 58.5795 8.10683 57.1092 5.0325 54.1685C2.09183 51.0942 0.6215 47.4183 0.6215 43.141C0.6215 41.4033 0.955667 39.3983 1.624 37.126C2.426 34.72 3.76267 31.7125 5.634 28.1035L20.471 0.835494L32.7015 7.45199ZM73.6035 7.45199L59.9695 32.9155L52.551 34.9205C53.353 33.3165 54.2887 31.9798 55.358 30.9105C56.561 29.8412 57.8308 29.3065 59.1675 29.3065C62.2418 29.3065 65.0488 30.6432 67.5885 33.3165C70.2618 35.8562 71.5985 39.131 71.5985 43.141C71.5985 47.2847 70.1282 50.8937 67.1875 53.968C64.2468 57.0423 60.7047 58.5795 56.561 58.5795C52.551 58.5795 49.0088 57.1092 45.9345 54.1685C42.9938 51.0942 41.5235 47.4183 41.5235 43.141C41.5235 41.4033 41.8577 39.3983 42.526 37.126C43.328 34.72 44.6647 31.7125 46.536 28.1035L61.373 0.835494L73.6035 7.45199Z" fill="#B19B85"/>
</svg>
