<svg width="197" height="37" viewBox="0 0 197 37" fill="none" xmlns="http://www.w3.org/2000/svg">
<path d="M183.27 23.5147C183.675 24.33 184.206 24.9886 184.861 25.553C185.548 26.1175 186.297 26.5252 187.17 26.8074C188.044 27.0896 188.949 27.2151 189.916 27.2151C190.884 27.2151 191.789 27.121 192.662 26.9015C193.536 26.682 194.285 26.337 194.909 25.898C195.565 25.459 196.064 24.8945 196.438 24.2046C196.813 23.5147 197 22.6994 197 21.79C197 20.9746 196.875 20.2847 196.594 19.7516C196.313 19.2185 195.97 18.7482 195.502 18.3719C195.034 17.9955 194.535 17.682 193.942 17.3997C193.349 17.1489 192.756 16.898 192.163 16.6785C191.352 16.3649 190.634 16.114 190.01 15.8945C189.417 15.675 188.887 15.4868 188.481 15.2987C188.075 15.1105 187.763 14.891 187.576 14.6401C187.389 14.3893 187.264 14.0757 187.264 13.6994C187.264 13.0408 187.514 12.5705 188.013 12.2255C188.512 11.8806 189.105 11.7238 189.823 11.7238C190.853 11.7238 191.57 11.9746 192.007 12.4764C192.444 12.9781 192.662 13.6367 192.662 14.4834H196.719C196.719 13.6053 196.532 12.79 196.189 12.0687C195.845 11.3161 195.346 10.6889 194.753 10.1558C194.16 9.62273 193.443 9.1837 192.6 8.90147C191.789 8.58788 190.884 8.43109 189.948 8.43109C189.011 8.43109 188.169 8.52517 187.358 8.74468C186.546 8.96419 185.86 9.30914 185.236 9.74816C184.611 10.1872 184.143 10.7516 183.769 11.3788C183.394 12.006 183.238 12.7586 183.238 13.6053C183.238 14.3579 183.332 15.0165 183.55 15.5496C183.769 16.0827 184.05 16.5217 184.424 16.898C184.799 17.2429 185.267 17.5565 185.797 17.8388C186.328 18.121 186.889 18.3719 187.482 18.5914C188.418 18.9363 189.23 19.2185 189.916 19.4694C190.603 19.6889 191.165 19.9398 191.633 20.128C192.101 20.3475 192.444 20.5983 192.662 20.8492C192.881 21.1001 193.006 21.445 193.006 21.8527C193.006 22.6053 192.725 23.1384 192.163 23.452C191.601 23.7656 190.915 23.9224 190.104 23.9224C189.105 23.9224 188.294 23.6715 187.638 23.2011C186.983 22.7307 186.671 21.9154 186.671 20.7238H182.614C182.677 21.79 182.864 22.6994 183.27 23.5147ZM167.261 26.776V17.4938C167.261 15.9572 167.604 14.6715 168.291 13.6367C168.977 12.6018 170.07 12.0687 171.505 12.0687C172.254 12.0687 172.878 12.1942 173.346 12.4764C173.846 12.7586 174.22 13.1349 174.532 13.6053C174.813 14.0757 175.031 14.6401 175.156 15.33C175.281 15.9886 175.343 16.7098 175.343 17.4938V26.776H179.494V16.1454C179.494 14.9224 179.4 13.8875 179.244 13.0722C179.088 12.2569 178.776 11.5043 178.339 10.8457C177.84 10.1245 177.122 9.52865 176.248 9.08963C175.375 8.6506 174.282 8.43109 172.972 8.43109C171.661 8.43109 170.507 8.68196 169.508 9.1837C168.509 9.68544 167.729 10.4067 167.168 11.3788V8.90147H163.017V26.776H167.261ZM145.386 15.6436C145.636 14.9537 145.979 14.3579 146.447 13.8562C146.915 13.3544 147.446 12.9468 148.101 12.6332C148.756 12.3196 149.443 12.1628 150.223 12.1628C151.003 12.1628 151.721 12.3196 152.376 12.6332C153.032 12.9468 153.593 13.3544 154.03 13.8562C154.498 14.3579 154.841 14.9851 155.091 15.675C155.341 16.3649 155.466 17.0861 155.466 17.8701C155.466 18.6227 155.341 19.344 155.091 20.0652C154.841 20.7551 154.467 21.351 154.03 21.8841C153.562 22.3858 153.032 22.7935 152.376 23.107C151.721 23.4206 151.003 23.5774 150.223 23.5774C149.443 23.5774 148.725 23.4206 148.101 23.107C147.446 22.7935 146.915 22.3858 146.447 21.8841C145.979 21.3823 145.636 20.7551 145.386 20.0652C145.137 19.3753 145.012 18.6541 145.012 17.8701C145.012 17.0548 145.137 16.3335 145.386 15.6436ZM141.548 21.4137C141.985 22.5426 142.64 23.5461 143.451 24.4241C144.263 25.3022 145.23 25.9921 146.385 26.4938C147.539 26.9955 148.819 27.2464 150.254 27.2464C151.69 27.2464 152.969 26.9955 154.124 26.4938C155.278 25.9921 156.277 25.3022 157.088 24.4241C157.9 23.5461 158.555 22.5426 158.992 21.4137C159.429 20.2847 159.647 19.0931 159.647 17.8074C159.647 16.553 159.429 15.3614 158.992 14.2011C158.555 13.0722 157.931 12.0687 157.088 11.1907C156.277 10.3126 155.278 9.65409 154.124 9.15234C152.969 8.6506 151.69 8.39973 150.254 8.39973C148.819 8.39973 147.539 8.6506 146.385 9.15234C145.23 9.65409 144.263 10.344 143.451 11.1907C142.64 12.0687 142.016 13.0722 141.548 14.2011C141.111 15.33 140.861 16.553 140.861 17.776C140.861 19.0931 141.08 20.3161 141.548 21.4137ZM136.555 8.90147H132.405V26.776H136.555V8.90147ZM132.498 4.88754C133.029 5.42064 133.684 5.70287 134.433 5.70287C135.213 5.70287 135.869 5.42064 136.399 4.88754C136.93 4.35443 137.21 3.6959 137.21 2.94328C137.21 2.15931 136.93 1.50078 136.399 0.967675C135.869 0.434574 135.213 0.152344 134.433 0.152344C133.684 0.152344 133.029 0.434574 132.498 0.967675C131.968 1.50078 131.687 2.15931 131.687 2.94328C131.687 3.6959 131.968 4.35443 132.498 4.88754ZM119.923 12.3823V20.6924C119.923 22.1976 120.11 23.3893 120.515 24.236C120.921 25.0827 121.42 25.7098 122.013 26.1175C122.606 26.5252 123.262 26.776 123.917 26.8701C124.572 26.9642 125.165 26.9955 125.664 26.9955C126.288 26.9955 126.85 26.9642 127.412 26.9328C127.974 26.8701 128.41 26.8388 128.754 26.776V23.107C128.566 23.1698 128.223 23.2011 127.818 23.2325C127.381 23.2638 127.006 23.2638 126.663 23.2638C126.257 23.2638 125.883 23.2325 125.571 23.1384C125.259 23.0443 124.978 22.8875 124.759 22.6367C124.541 22.3858 124.354 22.0408 124.26 21.5705C124.135 21.1001 124.104 20.5043 124.104 19.7203V12.3823H128.192V8.90147H124.104V3.47639H119.954V8.90147H116.927V12.3823H119.923ZM99.8886 15.6436C100.138 14.9537 100.482 14.3579 100.95 13.8562C101.418 13.3544 101.948 12.9468 102.604 12.6332C103.259 12.3196 103.945 12.1628 104.725 12.1628C105.506 12.1628 106.223 12.3196 106.879 12.6332C107.534 12.9468 108.096 13.3544 108.533 13.8562C109.001 14.3579 109.344 14.9851 109.594 15.675C109.843 16.3649 109.968 17.0861 109.968 17.8701C109.968 18.6227 109.843 19.344 109.594 20.0652C109.344 20.7551 108.969 21.351 108.533 21.8841C108.064 22.3858 107.534 22.7935 106.879 23.107C106.223 23.4206 105.506 23.5774 104.725 23.5774C103.945 23.5774 103.228 23.4206 102.604 23.107C101.948 22.7935 101.418 22.3858 100.95 21.8841C100.482 21.3823 100.138 20.7551 99.8886 20.0652C99.639 19.3753 99.5142 18.6541 99.5142 17.8701C99.5142 17.0548 99.639 16.3335 99.8886 15.6436ZM96.0192 21.4137C96.456 22.5426 97.0802 23.5461 97.8915 24.4241C98.7028 25.3022 99.639 25.9921 100.762 26.4938C101.886 26.9955 103.103 27.2464 104.476 27.2464C105.506 27.2464 106.567 26.9955 107.596 26.4938C108.626 25.9921 109.438 25.2708 109.968 24.3614V26.776H114.118V8.90147H109.968V11.3161C109.406 10.4067 108.626 9.7168 107.596 9.21506C106.567 8.71332 105.537 8.46245 104.476 8.46245C103.134 8.46245 101.917 8.71332 100.794 9.21506C99.6702 9.7168 98.7028 10.4067 97.9227 11.2534C97.1114 12.1314 96.4872 13.1349 96.0504 14.2638C95.6135 15.3928 95.3639 16.6158 95.3639 17.8388C95.3639 19.0931 95.5823 20.3161 96.0192 21.4137ZM87.5625 26.776V19.0618C87.5625 16.8353 88.0306 15.1732 88.9667 14.1384C89.9029 13.1036 91.2759 12.6018 93.0546 12.6018C93.3667 12.6018 93.6475 12.6018 93.866 12.6332C94.0844 12.6645 94.3653 12.6959 94.7085 12.79V8.93283C94.2717 8.74468 93.7412 8.6506 93.0546 8.6506C92.4617 8.6506 91.9 8.74468 91.3071 8.90147C90.7142 9.05827 90.1837 9.30914 89.7157 9.59137C89.2164 9.8736 88.7795 10.2185 88.405 10.5949C88.0306 10.9712 87.7497 11.3475 87.5625 11.7865V8.90147H83.4122V26.776H87.5625ZM68.2151 12.9468C69.0577 12.2569 70.1186 11.9119 71.3357 11.9119C72.6151 11.9119 73.6449 12.2882 74.425 13.0095C75.2363 13.7307 75.642 14.7342 75.642 15.9886H66.9357C66.9045 14.6715 67.3414 13.6367 68.2151 12.9468ZM63.191 21.3509C63.5655 22.4799 64.096 23.4834 64.8449 24.3614C65.5939 25.2394 66.4988 25.9293 67.6222 26.4624C68.7144 26.9955 70.025 27.2464 71.5229 27.2464C72.6775 27.2464 73.7073 27.0896 74.6122 26.7447C75.5172 26.4311 76.3285 25.9921 76.9838 25.459C77.6704 24.9259 78.2009 24.2987 78.6377 23.6088C79.0746 22.9189 79.3555 22.1663 79.4803 21.4137H75.2988C75.1739 21.7273 75.0179 22.0408 74.8307 22.3231C74.6434 22.6053 74.3938 22.8562 74.1129 23.0757C73.8321 23.2952 73.4576 23.452 73.052 23.5774C72.6151 23.7029 72.1158 23.7656 71.5541 23.7656C70.7115 23.7656 70.025 23.6401 69.4321 23.3893C68.8392 23.1384 68.3711 22.8248 67.9967 22.3858C67.6222 21.9781 67.3414 21.4764 67.1853 20.9119C66.9981 20.3475 66.9045 19.7203 66.9045 19.0931H79.5115C79.6051 18.4973 79.6675 17.9955 79.6675 17.5879C79.6675 17.1802 79.6987 16.8039 79.6987 16.4903C79.6987 15.33 79.4803 14.2952 79.0746 13.2917C78.6689 12.3196 78.076 11.4729 77.3271 10.7516C76.5782 10.0304 75.7044 9.46593 74.6746 9.05827C73.6761 8.6506 72.5839 8.43109 71.4605 8.43109C70.0562 8.43109 68.808 8.68196 67.7158 9.15234C66.6236 9.62273 65.7187 10.2813 64.9697 11.128C64.2208 11.9746 63.6591 12.9781 63.2846 14.1384C62.879 15.2987 62.6917 16.5217 62.6917 17.8701C62.6605 19.0618 62.8166 20.222 63.191 21.3509ZM47.1202 26.776V17.4938C47.1202 15.9572 47.4635 14.6715 48.15 13.6367C48.8365 12.6018 49.9287 12.0687 51.3642 12.0687C52.1131 12.0687 52.7372 12.1942 53.2053 12.4764C53.7046 12.7586 54.079 13.1349 54.3911 13.6053C54.6719 14.0757 54.8904 14.6401 55.0152 15.33C55.14 15.9886 55.2024 16.7098 55.2024 17.4938V26.776H59.3528V16.1454C59.3528 14.9224 59.2591 13.8875 59.1031 13.0722C58.9471 12.2569 58.635 11.5043 58.1982 10.8457C57.6989 10.1245 56.9812 9.52865 56.1074 9.08963C55.2336 8.6506 54.1415 8.43109 52.8308 8.43109C51.5202 8.43109 50.3656 8.68196 49.367 9.1837C48.3684 9.68544 47.5883 10.4067 47.0266 11.3788V8.90147H42.8763V26.776H47.1202ZM27.7416 12.9468C28.5842 12.2569 29.6452 11.9119 30.8622 11.9119C32.1416 11.9119 33.1714 12.2882 33.9515 13.0095C34.7629 13.7307 35.1685 14.7342 35.1685 15.9886H26.4622C26.4622 14.6715 26.8991 13.6367 27.7416 12.9468ZM22.7488 21.3509C23.1232 22.4799 23.6537 23.4834 24.4027 24.3614C25.1516 25.2394 26.0565 25.9293 27.1799 26.4624C28.2721 26.9955 29.5828 27.2464 31.0806 27.2464C32.2352 27.2464 33.265 27.0896 34.17 26.7447C35.0749 26.4311 35.8863 25.9921 36.5416 25.459C37.2281 24.9259 37.7586 24.2987 38.1955 23.6088C38.6323 22.9189 38.9132 22.1663 39.038 21.4137H34.8565C34.7317 21.7273 34.5756 22.0408 34.3884 22.3231C34.2012 22.6053 33.9515 22.8562 33.6707 23.0757C33.3898 23.2952 33.0154 23.452 32.6097 23.5774C32.1728 23.7029 31.6735 23.7656 31.1118 23.7656C30.2693 23.7656 29.5828 23.6401 28.9899 23.3893C28.397 23.1384 27.9289 22.8248 27.5544 22.3858C27.1799 21.9781 26.8991 21.4764 26.7431 20.9119C26.5558 20.3475 26.4622 19.7203 26.4622 19.0931H39.0692C39.1628 18.4973 39.2252 17.9955 39.2252 17.5879C39.2252 17.1802 39.2565 16.8039 39.2565 16.4903C39.2565 15.33 39.038 14.2952 38.6323 13.2917C38.2267 12.3196 37.6338 11.4729 36.8848 10.7516C36.1359 10.0304 35.2622 9.46593 34.2324 9.05827C33.2338 8.6506 32.1416 8.43109 31.0182 8.43109C29.614 8.43109 28.3658 8.68196 27.2736 9.15234C26.1814 9.62273 25.2764 10.2813 24.5275 11.128C23.7786 11.9746 23.2169 12.9781 22.8424 14.1384C22.4367 15.2987 22.2495 16.5217 22.2495 17.8701C22.1871 19.0618 22.3743 20.222 22.7488 21.3509ZM4.52479 15.6436C4.77443 14.9537 5.11769 14.3579 5.58578 13.8562C6.05386 13.3544 6.58435 12.9468 7.23966 12.6332C7.86377 12.3196 8.5815 12.1628 9.36163 12.1628C10.1418 12.1628 10.8595 12.3196 11.5148 12.6332C12.1701 12.9468 12.7318 13.3544 13.1687 13.8562C13.6368 14.3579 13.98 14.9851 14.2297 15.675C14.4793 16.3649 14.6041 17.0861 14.6041 17.8701C14.6041 18.6227 14.4793 19.344 14.2297 20.0652C13.98 20.7551 13.6056 21.351 13.1687 21.8841C12.7006 22.3858 12.1701 22.7935 11.5148 23.107C10.8595 23.4206 10.1418 23.5774 9.36163 23.5774C8.5815 23.5774 7.86377 23.4206 7.23966 23.107C6.61556 22.7935 6.05386 22.3858 5.61698 21.8841C5.1489 21.3823 4.80564 20.7551 4.556 20.0652C4.30635 19.3753 4.18153 18.6541 4.18153 17.8701C4.15032 17.0548 4.27515 16.3335 4.52479 15.6436ZM0.655314 21.4137C1.09219 22.5426 1.7163 23.5461 2.52764 24.4241C3.33898 25.3022 4.27515 25.9921 5.39854 26.4938C6.52194 26.9955 7.73895 27.2464 9.08079 27.2464C10.1418 27.2464 11.1715 26.9955 12.2013 26.4938C13.2311 25.9921 14.0425 25.2708 14.6041 24.3614V27.6541C14.6041 29.3475 14.1361 30.5705 13.1687 31.3231C12.2325 32.0757 10.8907 32.452 9.23681 32.452C7.73895 32.452 6.58435 32.0757 5.80421 31.3544C4.99287 30.6332 4.556 29.7865 4.46238 28.8144H0.312054C0.374465 29.7238 0.592903 30.6332 0.967369 31.5112C1.37304 32.3893 1.93474 33.1732 2.68367 33.8631C3.4326 34.553 4.33756 35.1175 5.42975 35.5252C6.52194 35.9642 7.80136 36.1523 9.26802 36.1523C10.7347 36.1523 12.0765 35.9955 13.2623 35.682C14.4481 35.3684 15.4467 34.8666 16.258 34.1767C17.1006 33.4868 17.7247 32.6088 18.1304 31.5112C18.5672 30.445 18.7857 29.1593 18.7857 27.6227V8.90147H14.6041V11.3161C14.0425 10.4067 13.2311 9.7168 12.2013 9.21506C11.1715 8.71332 10.1106 8.46245 9.08079 8.46245C7.73895 8.46245 6.52194 8.71332 5.39854 9.21506C4.27515 9.7168 3.33898 10.4067 2.52764 11.2534C1.7163 12.1314 1.09219 13.1349 0.655314 14.2638C0.218438 15.3928 0 16.5844 0 17.8388C0 19.0931 0.218438 20.3161 0.655314 21.4137Z" fill="white"/>
<path d="M66 2.94251V4.82404H77.4836V1.5L66 2.94251Z" fill="white"/>
<path d="M25.9316 2.94251V4.82404H37.4152V1.5L25.9316 2.94251Z" fill="white"/>
</svg>
