<svg width="197" height="36" viewBox="0 0 197 36" fill="none" xmlns="http://www.w3.org/2000/svg">
<path d="M183.27 23.3624C183.675 24.1777 184.206 24.8362 184.861 25.4007C185.548 25.9652 186.297 26.3728 187.17 26.6551C188.044 26.9373 188.949 27.0627 189.916 27.0627C190.884 27.0627 191.789 26.9686 192.662 26.7491C193.536 26.5296 194.285 26.1847 194.909 25.7456C195.565 25.3066 196.064 24.7422 196.438 24.0523C196.813 23.3624 197 22.547 197 21.6376C197 20.8223 196.875 20.1324 196.594 19.5993C196.313 19.0662 195.97 18.5958 195.502 18.2195C195.034 17.8432 194.535 17.5296 193.942 17.2474C193.349 16.9965 192.756 16.7456 192.163 16.5261C191.352 16.2125 190.634 15.9617 190.01 15.7422C189.417 15.5226 188.887 15.3345 188.481 15.1463C188.075 14.9582 187.763 14.7387 187.576 14.4878C187.389 14.2369 187.264 13.9233 187.264 13.547C187.264 12.8885 187.514 12.4181 188.013 12.0732C188.512 11.7282 189.105 11.5714 189.823 11.5714C190.853 11.5714 191.57 11.8223 192.007 12.324C192.444 12.8258 192.662 13.4843 192.662 14.331H196.719C196.719 13.453 196.532 12.6376 196.189 11.9164C195.845 11.1638 195.346 10.5366 194.753 10.0035C194.16 9.47038 193.443 9.03136 192.6 8.74913C191.789 8.43554 190.884 8.27874 189.948 8.27874C189.011 8.27874 188.169 8.37282 187.358 8.59233C186.546 8.81185 185.86 9.15679 185.236 9.59582C184.611 10.0348 184.143 10.5993 183.769 11.2265C183.394 11.8537 183.238 12.6063 183.238 13.453C183.238 14.2056 183.332 14.8641 183.55 15.3972C183.769 15.9303 184.05 16.3693 184.424 16.7456C184.799 17.0906 185.267 17.4042 185.797 17.6864C186.328 17.9686 186.889 18.2195 187.482 18.439C188.418 18.784 189.23 19.0662 189.916 19.3171C190.603 19.5366 191.165 19.7875 191.633 19.9756C192.101 20.1951 192.444 20.446 192.662 20.6969C192.881 20.9477 193.006 21.2927 193.006 21.7003C193.006 22.453 192.725 22.9861 192.163 23.2997C191.601 23.6132 190.915 23.77 190.104 23.77C189.105 23.77 188.294 23.5192 187.638 23.0488C186.983 22.5784 186.671 21.7631 186.671 20.5714H182.614C182.677 21.6376 182.864 22.547 183.27 23.3624ZM167.261 26.6237V17.3415C167.261 15.8049 167.604 14.5192 168.291 13.4843C168.977 12.4495 170.07 11.9164 171.505 11.9164C172.254 11.9164 172.878 12.0418 173.346 12.324C173.846 12.6063 174.22 12.9826 174.532 13.453C174.813 13.9233 175.031 14.4878 175.156 15.1777C175.281 15.8362 175.343 16.5575 175.343 17.3415V26.6237H179.494V15.993C179.494 14.77 179.4 13.7352 179.244 12.9199C179.088 12.1045 178.776 11.3519 178.339 10.6934C177.84 9.97212 177.122 9.37631 176.248 8.93728C175.375 8.49826 174.282 8.27874 172.972 8.27874C171.661 8.27874 170.507 8.52962 169.508 9.03136C168.509 9.5331 167.729 10.2544 167.168 11.2265V8.74913H163.017V26.6237H167.261ZM145.386 15.4913C145.636 14.8014 145.979 14.2056 146.447 13.7038C146.915 13.2021 147.446 12.7944 148.101 12.4808C148.756 12.1672 149.443 12.0105 150.223 12.0105C151.003 12.0105 151.721 12.1672 152.376 12.4808C153.032 12.7944 153.593 13.2021 154.03 13.7038C154.498 14.2056 154.841 14.8328 155.091 15.5226C155.341 16.2125 155.466 16.9338 155.466 17.7178C155.466 18.4704 155.341 19.1916 155.091 19.9129C154.841 20.6028 154.467 21.1986 154.03 21.7317C153.562 22.2334 153.032 22.6411 152.376 22.9547C151.721 23.2683 151.003 23.4251 150.223 23.4251C149.443 23.4251 148.725 23.2683 148.101 22.9547C147.446 22.6411 146.915 22.2334 146.447 21.7317C145.979 21.23 145.636 20.6028 145.386 19.9129C145.137 19.223 145.012 18.5017 145.012 17.7178C145.012 16.9024 145.137 16.1812 145.386 15.4913ZM141.548 21.2613C141.985 22.3902 142.64 23.3937 143.451 24.2718C144.263 25.1498 145.23 25.8397 146.385 26.3415C147.539 26.8432 148.819 27.0941 150.254 27.0941C151.69 27.0941 152.969 26.8432 154.124 26.3415C155.278 25.8397 156.277 25.1498 157.088 24.2718C157.9 23.3937 158.555 22.3902 158.992 21.2613C159.429 20.1324 159.647 18.9408 159.647 17.6551C159.647 16.4007 159.429 15.2091 158.992 14.0488C158.555 12.9199 157.931 11.9164 157.088 11.0383C156.277 10.1603 155.278 9.50174 154.124 9C152.969 8.49826 151.69 8.24739 150.254 8.24739C148.819 8.24739 147.539 8.49826 146.385 9C145.23 9.50174 144.263 10.1916 143.451 11.0383C142.64 11.9164 142.016 12.9199 141.548 14.0488C141.111 15.1777 140.861 16.4007 140.861 17.6237C140.861 18.9408 141.08 20.1638 141.548 21.2613ZM136.555 8.74913H132.405V26.6237H136.555V8.74913ZM132.498 4.73519C133.029 5.26829 133.684 5.55052 134.433 5.55052C135.213 5.55052 135.869 5.26829 136.399 4.73519C136.93 4.20209 137.21 3.54355 137.21 2.79094C137.21 2.00697 136.93 1.34843 136.399 0.815331C135.869 0.28223 135.213 0 134.433 0C133.684 0 133.029 0.28223 132.498 0.815331C131.968 1.34843 131.687 2.00697 131.687 2.79094C131.687 3.54355 131.968 4.20209 132.498 4.73519ZM119.923 12.23V20.5401C119.923 22.0453 120.11 23.2369 120.515 24.0836C120.921 24.9303 121.42 25.5575 122.013 25.9652C122.606 26.3728 123.262 26.6237 123.917 26.7178C124.572 26.8118 125.165 26.8432 125.664 26.8432C126.288 26.8432 126.85 26.8118 127.412 26.7805C127.974 26.7178 128.41 26.6864 128.754 26.6237V22.9547C128.566 23.0174 128.223 23.0488 127.818 23.0801C127.381 23.1115 127.006 23.1115 126.663 23.1115C126.257 23.1115 125.883 23.0801 125.571 22.9861C125.259 22.892 124.978 22.7352 124.759 22.4843C124.541 22.2334 124.354 21.8885 124.26 21.4181C124.135 20.9477 124.104 20.3519 124.104 19.5679V12.23H128.192V8.74913H124.104V3.32404H119.954V8.74913H116.927V12.23H119.923ZM99.8886 15.4913C100.138 14.8014 100.482 14.2056 100.95 13.7038C101.418 13.2021 101.948 12.7944 102.604 12.4808C103.259 12.1672 103.945 12.0105 104.725 12.0105C105.506 12.0105 106.223 12.1672 106.879 12.4808C107.534 12.7944 108.096 13.2021 108.533 13.7038C109.001 14.2056 109.344 14.8328 109.594 15.5226C109.843 16.2125 109.968 16.9338 109.968 17.7178C109.968 18.4704 109.843 19.1916 109.594 19.9129C109.344 20.6028 108.969 21.1986 108.533 21.7317C108.064 22.2334 107.534 22.6411 106.879 22.9547C106.223 23.2683 105.506 23.4251 104.725 23.4251C103.945 23.4251 103.228 23.2683 102.604 22.9547C101.948 22.6411 101.418 22.2334 100.95 21.7317C100.482 21.23 100.138 20.6028 99.8886 19.9129C99.639 19.223 99.5142 18.5017 99.5142 17.7178C99.5142 16.9024 99.639 16.1812 99.8886 15.4913ZM96.0192 21.2613C96.456 22.3902 97.0802 23.3937 97.8915 24.2718C98.7028 25.1498 99.639 25.8397 100.762 26.3415C101.886 26.8432 103.103 27.0941 104.476 27.0941C105.506 27.0941 106.567 26.8432 107.596 26.3415C108.626 25.8397 109.438 25.1185 109.968 24.2091V26.6237H114.118V8.74913H109.968V11.1638C109.406 10.2544 108.626 9.56446 107.596 9.06272C106.567 8.56098 105.537 8.3101 104.476 8.3101C103.134 8.3101 101.917 8.56098 100.794 9.06272C99.6702 9.56446 98.7028 10.2544 97.9227 11.101C97.1114 11.9791 96.4872 12.9826 96.0504 14.1115C95.6135 15.2404 95.3639 16.4634 95.3639 17.6864C95.3639 18.9408 95.5823 20.1638 96.0192 21.2613ZM87.5625 26.6237V18.9094C87.5625 16.6829 88.0306 15.0209 88.9667 13.9861C89.9029 12.9512 91.2759 12.4495 93.0546 12.4495C93.3667 12.4495 93.6475 12.4495 93.866 12.4808C94.0844 12.5122 94.3653 12.5436 94.7085 12.6376V8.78049C94.2717 8.59233 93.7412 8.49826 93.0546 8.49826C92.4617 8.49826 91.9 8.59233 91.3071 8.74913C90.7142 8.90592 90.1837 9.15679 89.7157 9.43902C89.2164 9.72125 88.7795 10.0662 88.405 10.4425C88.0306 10.8188 87.7497 11.1951 87.5625 11.6341V8.74913H83.4122V26.6237H87.5625ZM68.2151 12.7944C69.0577 12.1045 70.1186 11.7596 71.3357 11.7596C72.6151 11.7596 73.6449 12.1359 74.425 12.8571C75.2363 13.5784 75.642 14.5819 75.642 15.8362H66.9357C66.9045 14.5192 67.3414 13.4843 68.2151 12.7944ZM63.191 21.1986C63.5655 22.3275 64.096 23.331 64.8449 24.2091C65.5939 25.0871 66.4988 25.777 67.6222 26.3101C68.7144 26.8432 70.025 27.0941 71.5229 27.0941C72.6775 27.0941 73.7073 26.9373 74.6122 26.5923C75.5172 26.2787 76.3285 25.8397 76.9838 25.3066C77.6704 24.7735 78.2009 24.1463 78.6377 23.4564C79.0746 22.7666 79.3555 22.0139 79.4803 21.2613H75.2988C75.1739 21.5749 75.0179 21.8885 74.8307 22.1707C74.6434 22.453 74.3938 22.7038 74.1129 22.9233C73.8321 23.1429 73.4576 23.2996 73.052 23.4251C72.6151 23.5505 72.1158 23.6132 71.5541 23.6132C70.7115 23.6132 70.025 23.4878 69.4321 23.2369C68.8392 22.9861 68.3711 22.6725 67.9967 22.2334C67.6222 21.8258 67.3414 21.324 67.1853 20.7596C66.9981 20.1951 66.9045 19.5679 66.9045 18.9408H79.5115C79.6051 18.3449 79.6675 17.8432 79.6675 17.4355C79.6675 17.0279 79.6987 16.6516 79.6987 16.338C79.6987 15.1777 79.4803 14.1429 79.0746 13.1394C78.6689 12.1672 78.076 11.3206 77.3271 10.5993C76.5782 9.87805 75.7044 9.31359 74.6746 8.90592C73.6761 8.49826 72.5839 8.27874 71.4605 8.27874C70.0562 8.27874 68.808 8.52962 67.7158 9C66.6236 9.47038 65.7187 10.1289 64.9697 10.9756C64.2208 11.8223 63.6591 12.8258 63.2846 13.9861C62.879 15.1463 62.6917 16.3693 62.6917 17.7178C62.6605 18.9094 62.8166 20.0697 63.191 21.1986ZM47.1202 26.6237V17.3415C47.1202 15.8049 47.4635 14.5192 48.15 13.4843C48.8365 12.4495 49.9287 11.9164 51.3642 11.9164C52.1131 11.9164 52.7372 12.0418 53.2053 12.324C53.7046 12.6063 54.079 12.9826 54.3911 13.453C54.6719 13.9233 54.8904 14.4878 55.0152 15.1777C55.14 15.8362 55.2024 16.5575 55.2024 17.3415V26.6237H59.3528V15.993C59.3528 14.77 59.2591 13.7352 59.1031 12.9199C58.9471 12.1045 58.635 11.3519 58.1982 10.6934C57.6989 9.97212 56.9812 9.37631 56.1074 8.93728C55.2336 8.49826 54.1415 8.27874 52.8308 8.27874C51.5202 8.27874 50.3656 8.52962 49.367 9.03136C48.3684 9.5331 47.5883 10.2544 47.0266 11.2265V8.74913H42.8763V26.6237H47.1202ZM27.7416 12.7944C28.5842 12.1045 29.6452 11.7596 30.8622 11.7596C32.1416 11.7596 33.1714 12.1359 33.9515 12.8571C34.7629 13.5784 35.1685 14.5819 35.1685 15.8362H26.4622C26.4622 14.5192 26.8991 13.4843 27.7416 12.7944ZM22.7488 21.1986C23.1232 22.3275 23.6537 23.331 24.4027 24.2091C25.1516 25.0871 26.0565 25.777 27.1799 26.3101C28.2721 26.8432 29.5828 27.0941 31.0806 27.0941C32.2352 27.0941 33.265 26.9373 34.17 26.5923C35.0749 26.2787 35.8863 25.8397 36.5416 25.3066C37.2281 24.7735 37.7586 24.1463 38.1955 23.4564C38.6323 22.7666 38.9132 22.0139 39.038 21.2613H34.8565C34.7317 21.5749 34.5756 21.8885 34.3884 22.1707C34.2012 22.453 33.9515 22.7038 33.6707 22.9233C33.3898 23.1429 33.0154 23.2996 32.6097 23.4251C32.1728 23.5505 31.6735 23.6132 31.1118 23.6132C30.2693 23.6132 29.5828 23.4878 28.9899 23.2369C28.397 22.9861 27.9289 22.6725 27.5544 22.2334C27.1799 21.8258 26.8991 21.324 26.7431 20.7596C26.5558 20.1951 26.4622 19.5679 26.4622 18.9408H39.0692C39.1628 18.3449 39.2252 17.8432 39.2252 17.4355C39.2252 17.0279 39.2565 16.6516 39.2565 16.338C39.2565 15.1777 39.038 14.1429 38.6323 13.1394C38.2267 12.1672 37.6338 11.3206 36.8848 10.5993C36.1359 9.87805 35.2622 9.31359 34.2324 8.90592C33.2338 8.49826 32.1416 8.27874 31.0182 8.27874C29.614 8.27874 28.3658 8.52962 27.2736 9C26.1814 9.47038 25.2764 10.1289 24.5275 10.9756C23.7786 11.8223 23.2169 12.8258 22.8424 13.9861C22.4367 15.1463 22.2495 16.3693 22.2495 17.7178C22.1871 18.9094 22.3743 20.0697 22.7488 21.1986ZM4.52479 15.4913C4.77443 14.8014 5.11769 14.2056 5.58578 13.7038C6.05386 13.2021 6.58435 12.7944 7.23966 12.4808C7.86377 12.1672 8.5815 12.0105 9.36163 12.0105C10.1418 12.0105 10.8595 12.1672 11.5148 12.4808C12.1701 12.7944 12.7318 13.2021 13.1687 13.7038C13.6368 14.2056 13.98 14.8328 14.2297 15.5226C14.4793 16.2125 14.6041 16.9338 14.6041 17.7178C14.6041 18.4704 14.4793 19.1916 14.2297 19.9129C13.98 20.6028 13.6056 21.1986 13.1687 21.7317C12.7006 22.2334 12.1701 22.6411 11.5148 22.9547C10.8595 23.2683 10.1418 23.4251 9.36163 23.4251C8.5815 23.4251 7.86377 23.2683 7.23966 22.9547C6.61556 22.6411 6.05386 22.2334 5.61698 21.7317C5.1489 21.23 4.80564 20.6028 4.556 19.9129C4.30635 19.223 4.18153 18.5017 4.18153 17.7178C4.15032 16.9024 4.27515 16.1812 4.52479 15.4913ZM0.655314 21.2613C1.09219 22.3902 1.7163 23.3937 2.52764 24.2718C3.33898 25.1498 4.27515 25.8397 5.39854 26.3415C6.52194 26.8432 7.73895 27.0941 9.08079 27.0941C10.1418 27.0941 11.1715 26.8432 12.2013 26.3415C13.2311 25.8397 14.0425 25.1185 14.6041 24.2091V27.5017C14.6041 29.1951 14.1361 30.4181 13.1687 31.1707C12.2325 31.9233 10.8907 32.2996 9.23681 32.2996C7.73895 32.2996 6.58435 31.9233 5.80421 31.2021C4.99287 30.4808 4.556 29.6341 4.46238 28.662H0.312054C0.374465 29.5714 0.592903 30.4808 0.967369 31.3589C1.37304 32.2369 1.93474 33.0209 2.68367 33.7108C3.4326 34.4007 4.33756 34.9652 5.42975 35.3728C6.52194 35.8118 7.80136 36 9.26802 36C10.7347 36 12.0765 35.8432 13.2623 35.5296C14.4481 35.216 15.4467 34.7143 16.258 34.0244C17.1006 33.3345 17.7247 32.4564 18.1304 31.3589C18.5672 30.2927 18.7857 29.007 18.7857 27.4704V8.74913H14.6041V11.1638C14.0425 10.2544 13.2311 9.56446 12.2013 9.06272C11.1715 8.56098 10.1106 8.3101 9.08079 8.3101C7.73895 8.3101 6.52194 8.56098 5.39854 9.06272C4.27515 9.56446 3.33898 10.2544 2.52764 11.101C1.7163 11.9791 1.09219 12.9826 0.655314 14.1115C0.218438 15.2404 0 16.4321 0 17.6864C0 18.9408 0.218438 20.1638 0.655314 21.2613Z" fill="white"/>
</svg>
