<svg width="79" height="80" viewBox="0 0 79 80" fill="none" xmlns="http://www.w3.org/2000/svg">
<circle cx="30" cy="50" r="30" fill="#EC6500"/>
<path d="M72.8162 46.7101C71.6045 45.9023 70.2318 45.3401 68.8236 44.6088V43.9101C68.8236 31.6486 68.7936 19.3899 68.84 7.12835C68.8564 3.12488 65.6689 -0.0244185 61.6981 0.000142687C53.2764 0.0519941 44.8546 0.0219749 36.4328 0.0110588C34.3806 0.0110588 32.6913 0.753353 31.3323 2.28979C28.4122 5.58645 25.4949 8.88312 22.553 12.1607C21.2949 13.5607 20.6945 15.1571 20.6973 17.0484C20.7164 30.8982 20.7082 44.748 20.7082 58.5977C20.7082 62.8769 23.6528 65.8324 27.9128 65.8351C37.197 65.8351 46.4811 65.8324 55.7652 65.8542C56.1255 65.8542 56.5676 66.0234 56.8296 66.2663C59.7987 68.9871 63.2619 70.1552 67.2653 69.6585C72.5105 69.009 76.6532 65.1965 77.9768 59.8204C79.1584 55.0145 77.0407 49.5292 72.8134 46.7101H72.8162ZM32.4485 5.16891C32.5003 5.18529 32.5494 5.19893 32.6013 5.21531C32.6013 7.09288 32.6013 8.97045 32.6013 10.848C32.6013 11.4157 32.604 11.9833 32.5931 12.5482C32.5822 13.0149 32.3666 13.3696 31.8753 13.3724C29.6867 13.3915 27.498 13.3805 25.1511 13.3805C27.6508 10.5697 30.0497 7.86792 32.4485 5.16891V5.16891ZM54.368 63.0761C54.0951 63.087 53.8576 63.1088 53.6202 63.1088C45.0838 63.1088 36.5475 63.1088 28.0111 63.1088C25.1347 63.1088 23.44 61.4196 23.44 58.5459C23.44 44.7152 23.44 30.8872 23.44 17.0565V16.1314H24.2832C26.622 16.1314 28.9635 16.0604 31.2968 16.1505C33.6601 16.2433 35.4395 14.6686 35.3603 12.057C35.2757 9.26518 35.3412 6.47066 35.3412 3.67887V2.86562C35.7178 2.82195 36.048 2.74827 36.3782 2.74827C44.8682 2.74281 53.361 2.73462 61.851 2.74827C64.3398 2.75373 66.081 4.51941 66.0837 7.01646C66.0919 19.3025 66.0891 31.5859 66.0864 43.8719C66.0864 44.0275 66.07 44.183 66.0591 44.3904C61.286 44.4314 57.4545 46.3062 54.8974 50.3697C52.3349 54.436 52.3212 58.6987 54.3652 63.0733L54.368 63.0761ZM65.688 67.0577C60.2026 67.1014 55.7216 62.6831 55.6588 57.1677C55.596 51.707 60.0744 47.1822 65.5597 47.1631C71.0914 47.144 75.5234 51.5405 75.5479 57.0668C75.5725 62.5194 71.1324 67.0168 65.688 67.0577V67.0577Z" fill="#3E3E3E"/>
<path d="M34.3078 23.591C34.5561 23.6183 34.8072 23.6101 35.0555 23.6101C38.4586 23.6101 41.8645 23.6101 45.2676 23.6101C47.9693 23.6101 50.6683 23.6101 53.37 23.6101C54.3006 23.6101 55.2312 23.6292 56.1618 23.5882C56.8304 23.5582 57.308 23.0561 57.3708 22.4229C57.4417 21.7079 57.1033 21.1812 56.4129 20.9847C56.1564 20.9111 55.878 20.881 55.6106 20.881C48.7116 20.8756 41.8126 20.8756 34.9136 20.881C34.6243 20.881 34.3214 20.9138 34.0458 20.9957C33.4127 21.1785 33.0497 21.7516 33.1125 22.3984C33.1752 23.037 33.6501 23.52 34.3105 23.591H34.3078Z" fill="#3E3E3E"/>
<path d="M56.3225 30.9716C56.0632 30.9115 55.7794 30.9306 55.5092 30.9306C52.0816 30.9306 48.6566 30.9306 45.229 30.9306C41.8013 30.9306 38.4664 30.9306 35.0852 30.9306C34.8587 30.9306 34.6294 30.9252 34.4057 30.9443C33.6661 31.0016 33.1558 31.4901 33.1094 32.1832C33.0602 32.8819 33.4778 33.4277 34.2119 33.5914C34.4521 33.646 34.7058 33.6624 34.9515 33.6624C41.8286 33.6651 48.703 33.6678 55.5802 33.6624C55.894 33.6624 56.2188 33.6269 56.5162 33.5368C57.1002 33.3567 57.4304 32.7945 57.3704 32.1532C57.3131 31.5064 56.9338 31.1189 56.3225 30.977V30.9716Z" fill="#3E3E3E"/>
<path d="M55.5799 43.654C55.6618 43.654 55.7436 43.654 55.8255 43.6458C55.8883 43.6458 55.9483 43.6458 56.0111 43.6458C56.8134 43.6294 57.321 43.13 57.3701 42.4177C57.3729 42.3795 57.3729 42.344 57.3729 42.3058C57.3729 42.2758 57.3783 42.2458 57.3756 42.213C57.3756 42.1994 57.3701 42.1912 57.3701 42.1776C57.3701 42.1666 57.3701 42.1557 57.3701 42.1448C57.3128 41.498 56.9335 41.1105 56.3222 40.9686C56.1093 40.9195 55.8801 40.9222 55.6563 40.9277C55.6454 40.9277 55.6372 40.9277 55.6263 40.9277C50.6649 40.9249 40.4993 40.9249 35.246 40.9277C35.1914 40.9277 35.1395 40.9277 35.0849 40.9277C34.9676 40.9277 34.8503 40.9277 34.7356 40.9277C34.5446 40.9277 34.3344 40.9249 34.1652 40.9768C33.6249 41.0969 33.2456 41.468 33.1391 41.9838C33.1337 42.0002 33.1255 42.0165 33.1228 42.0357C33.1037 42.1284 33.1009 42.2321 33.1118 42.3413C33.1228 42.636 33.2183 42.898 33.3929 43.1109C33.4366 43.1764 33.4857 43.2392 33.5349 43.2883C33.745 43.4957 34.1161 43.5912 34.4709 43.6294C34.6319 43.6485 34.7929 43.6621 34.9539 43.6621C35.628 43.6621 36.2994 43.6621 36.9734 43.6621C40.4393 43.6731 45.9464 43.6621 47.9823 43.6621C49.1394 43.6621 50.2965 43.6621 51.4536 43.6621C52.7035 43.6621 53.9534 43.6703 55.2033 43.6594C55.3316 43.6594 55.4571 43.6594 55.5854 43.6594L55.5799 43.654Z" fill="#3E3E3E"/>
<path d="M49.7939 50.9732C47.275 50.9787 44.7562 50.9732 42.2373 50.9732C39.6965 50.9732 37.1531 50.9678 34.6124 50.976C33.6954 50.9787 33.125 51.4972 33.1059 52.2914C33.0868 53.0746 33.6572 53.634 34.5414 53.6995C34.6779 53.7104 34.8143 53.7023 34.9508 53.7023C39.8084 53.7023 44.6661 53.7023 49.521 53.6968C49.8349 53.6968 50.1624 53.6722 50.4571 53.5767C51.3085 53.3038 51.6278 52.3459 51.1475 51.59C50.8309 51.0906 50.3506 50.9678 49.7994 50.9678L49.7939 50.9732Z" fill="#3E3E3E"/>
<path d="M69.443 59.0204C68.8099 58.3846 68.1768 57.7514 67.5163 57.091C68.4606 56.1577 69.3448 55.309 70.199 54.4302C70.9685 53.6388 70.8485 52.569 69.9588 52.146C69.2957 51.8322 68.7308 52.0451 68.2395 52.539C67.3772 53.4068 66.512 54.2719 65.6197 55.1643C65.4177 54.9733 65.2513 54.8232 65.093 54.6649C64.3534 53.9281 63.6275 53.1749 62.8715 52.4571C62.2521 51.8677 61.4688 51.8513 60.923 52.3698C60.3445 52.9183 60.3499 53.7016 60.9476 54.3729C61.114 54.5585 61.2969 54.7304 61.4743 54.9051C62.2057 55.6119 62.9398 56.3132 63.6984 57.0419C63.4665 57.2902 63.3191 57.4567 63.1635 57.615C62.4267 58.3546 61.6708 59.0777 60.9558 59.8391C60.2326 60.6115 60.3799 61.6567 61.2559 62.066C61.9164 62.3717 62.484 62.167 62.9752 61.6676C63.8349 60.7943 64.7 59.9292 65.6743 58.944C65.9199 59.2497 66.1109 59.5362 66.3483 59.7764C67.0306 60.475 67.7074 61.1818 68.4278 61.8395C69.0037 62.3635 69.8387 62.3171 70.33 61.8013C70.8266 61.2801 70.8458 60.5487 70.3436 59.9483C70.068 59.6181 69.7459 59.3261 69.4403 59.0204H69.443Z" fill="#3E3E3E"/>
</svg>
