<svg width="22" height="21" viewBox="0 0 22 21" fill="none" xmlns="http://www.w3.org/2000/svg">
<path d="M17.1926 2.73047H4.61856C3.62649 2.73047 2.82227 3.50643 2.82227 4.46362V16.5957C2.82227 17.5529 3.62649 18.3288 4.61856 18.3288H17.1926C18.1847 18.3288 18.9889 17.5529 18.9889 16.5957V4.46362C18.9889 3.50643 18.1847 2.73047 17.1926 2.73047Z" stroke="#3E3E3E" stroke-width="1.5" stroke-linecap="round" stroke-linejoin="round"/>
<path d="M18.9876 13.1307L14.4968 8.79785L4.61719 18.3302" stroke="#3E3E3E" stroke-width="1.5" stroke-linecap="round" stroke-linejoin="round"/>
<path d="M7.76128 8.79797C8.50534 8.79797 9.10851 8.216 9.10851 7.49811C9.10851 6.78021 8.50534 6.19824 7.76128 6.19824C7.01723 6.19824 6.41406 6.78021 6.41406 7.49811C6.41406 8.216 7.01723 8.79797 7.76128 8.79797Z" stroke="#3E3E3E" stroke-width="1.5" stroke-linecap="round" stroke-linejoin="round"/>
</svg>
