<svg width="24" height="24" viewBox="0 0 24 24" fill="none" xmlns="http://www.w3.org/2000/svg">
<path fill-rule="evenodd" clip-rule="evenodd" d="M11.9431 6.07424C15.4559 6.07424 18.2988 8.92534 18.2988 12.43C18.2988 15.9346 15.4477 18.7857 11.9431 18.7857C8.43842 18.7857 5.58733 15.9346 5.58733 12.43C5.58733 8.92534 8.43842 6.07424 11.9431 6.07424ZM7.19669 0.886719H16.812C20.4228 0.886719 23.372 3.81134 23.372 7.35683V16.9476C23.372 20.5094 20.4228 23.4177 16.812 23.4177H7.19669C3.58584 23.4177 0.636719 20.5094 0.636719 16.9476V7.35683C0.636719 3.795 3.59401 0.886719 7.19669 0.886719ZM18.0946 5.19195C18.6583 5.19195 19.1321 5.64944 19.1321 6.22946C19.1321 6.80948 18.6746 7.26696 18.0946 7.26696C17.5145 7.26696 17.0571 6.80948 17.0571 6.22946C17.0571 5.64944 17.5145 5.19195 18.0946 5.19195ZM7.98911 2.72482H16.0277C19.0504 2.72482 21.5094 5.17562 21.5094 8.18193V16.2696C21.5094 19.2759 19.0422 21.7267 16.0277 21.7267H7.98911C4.96646 21.7267 2.50749 19.2759 2.50749 16.2696V8.18193C2.50749 5.17562 4.97463 2.72482 7.98911 2.72482ZM11.9431 8.20644C14.2632 8.20644 16.1421 10.0936 16.1421 12.4055C16.1421 14.7174 14.255 16.6045 11.9431 16.6045C9.63115 16.6045 7.74403 14.7174 7.74403 12.4055C7.74403 10.0936 9.63115 8.20644 11.9431 8.20644Z" fill="white"/>
</svg>
