<svg width="16" height="16" viewBox="0 0 16 16" fill="none" xmlns="http://www.w3.org/2000/svg">
<g clip-path="url(#clip0_1_4056)">
<path fill-rule="evenodd" clip-rule="evenodd" d="M5.59007 5.32096H8.55402V6.84046H8.59691C9.00967 6.09995 10.019 5.32096 11.5241 5.32096C14.6538 5.32096 15.2327 7.26869 15.2327 9.80247V14.9639H12.1416V10.3885C12.1416 9.29781 12.1189 7.89377 10.5344 7.89377C8.92495 7.89377 8.67829 9.08106 8.67829 10.309V14.9639H5.59005V5.32096H5.59007ZM3.44718 2.64241C3.44718 3.52963 2.72716 4.24966 1.83993 4.24966C0.952703 4.24966 0.232422 3.52963 0.232422 2.64241C0.232422 1.75518 0.952703 1.03516 1.83993 1.03516C2.72716 1.03516 3.44718 1.75518 3.44718 2.64241ZM0.232422 5.32096H3.44718V14.9639H0.232422V5.32096Z" fill="#3E3E3E"/>
</g>
<defs>
<clipPath id="clip0_1_4056">
<rect width="15" height="15" fill="white" transform="translate(0.232422 0.5)"/>
</clipPath>
</defs>
</svg>
