<svg width="11" height="15" viewBox="0 0 11 15" fill="none" xmlns="http://www.w3.org/2000/svg">
<path d="M9.94018 6.03358C10.0034 6.03358 10.0448 6.03358 10.0862 6.03358C10.577 6.03577 10.906 6.31608 10.9748 6.79457C10.9894 6.89805 10.9983 7.00316 10.9989 7.10718C11 9.17061 11.0028 11.2346 10.995 13.298C10.9944 13.4935 10.9558 13.6999 10.8831 13.8811C10.7532 14.2046 10.4997 14.376 10.1265 14.376C7.05896 14.3727 3.99084 14.3672 0.923288 14.3804C0.355886 14.3826 0.0867331 13.9802 0.0251806 13.6057C0.0089531 13.5071 0.00111914 13.4064 0.00111914 13.3068C0 11.234 0 9.1613 0 7.08857C0 6.82961 0.0419676 6.58051 0.199206 6.36316C0.35085 6.15348 0.549496 6.02811 0.820887 6.03413C0.894191 6.03577 0.968054 6.03413 1.0587 6.03413C1.0587 5.97391 1.05814 5.92518 1.0587 5.87701C1.06654 5.38045 1.05311 4.88279 1.08668 4.38842C1.14823 3.47688 1.49629 2.66826 2.08439 1.96093C2.59136 1.35104 3.22312 0.905944 3.97909 0.636587C4.59126 0.418145 5.22245 0.346426 5.87211 0.395698C6.79148 0.465775 7.60398 0.789879 8.30959 1.36473C9.09747 2.00637 9.60891 2.82101 9.82267 3.80099C9.89653 4.14097 9.91947 4.49463 9.93626 4.84283C9.95529 5.23263 9.94074 5.62462 9.94074 6.03304L9.94018 6.03358ZM8.09136 6.02647C8.0936 5.9761 8.09752 5.93175 8.09808 5.88686C8.09808 5.51786 8.10871 5.14832 8.09472 4.77987C8.08633 4.55431 8.06338 4.32437 8.00855 4.10593C7.72876 2.98799 6.646 2.17061 5.48321 2.18539C4.07981 2.20291 2.92375 3.33016 2.9036 4.70432C2.89801 5.10945 2.90192 5.51513 2.90248 5.9208C2.90248 5.9553 2.9092 5.99033 2.91255 6.02647H8.09136Z" fill="white"/>
</svg>
