<svg width="15" height="17" viewBox="0 0 15 17" fill="none" xmlns="http://www.w3.org/2000/svg">
<g clip-path="url(#clip0_1_2598)">
<path d="M12.9644 6.58375C12.9644 10.578 7.82887 14.0017 7.82887 14.0017C7.82887 14.0017 2.69336 10.578 2.69336 6.58375C2.69336 5.22173 3.23442 3.91549 4.19751 2.9524C5.16061 1.9893 6.46685 1.44824 7.82887 1.44824C9.19089 1.44824 10.4971 1.9893 11.4602 2.9524C12.4233 3.91549 12.9644 5.22173 12.9644 6.58375Z" stroke="#A9A9A9" stroke-width="1.5" stroke-linecap="round" stroke-linejoin="round"/>
<path d="M7.82902 8.29574C8.77444 8.29574 9.54086 7.52933 9.54086 6.58391C9.54086 5.63849 8.77444 4.87207 7.82902 4.87207C6.8836 4.87207 6.11719 5.63849 6.11719 6.58391C6.11719 7.52933 6.8836 8.29574 7.82902 8.29574Z" stroke="#A9A9A9" stroke-width="1.5" stroke-linecap="round" stroke-linejoin="round"/>
</g>
<defs>
<clipPath id="clip0_1_2598">
<rect width="13.6947" height="16.2624" fill="white" transform="translate(0.982422 0.0214844)"/>
</clipPath>
</defs>
</svg>
