<svg width="16" height="16" viewBox="0 0 16 16" fill="none" xmlns="http://www.w3.org/2000/svg">
<path d="M4.27251 9.37151C4.092 9.39415 3.91197 9.41832 3.73242 9.444M4.27251 9.37151C5.5696 9.20882 6.89122 9.125 8.23242 9.125C9.57362 9.125 10.8952 9.20882 12.1923 9.37151M4.27251 9.37151L3.9881 12.5M12.1923 9.37151C12.3728 9.39415 12.5529 9.41832 12.7324 9.444M12.1923 9.37151L12.4767 12.5M12.4767 12.5L12.6488 14.3924C12.6937 14.8865 12.3046 15.3125 11.8085 15.3125H4.65636C4.1602 15.3125 3.77115 14.8865 3.81607 14.3924L3.9881 12.5M12.4767 12.5H13.2949C14.2269 12.5 14.9824 11.7445 14.9824 10.8125V6.09177C14.9824 5.28106 14.4065 4.58061 13.6047 4.46064C13.1294 4.38953 12.6511 4.3277 12.1699 4.27536M3.9881 12.5H3.16992C2.23794 12.5 1.48242 11.7445 1.48242 10.8125V6.09177C1.48242 5.28106 2.05835 4.58061 2.86013 4.46064C3.33542 4.38953 3.81375 4.3277 4.29492 4.27536M12.1699 4.27536C10.8768 4.13469 9.56302 4.0625 8.23242 4.0625C6.90183 4.0625 5.58809 4.13469 4.29492 4.27536M12.1699 4.27536V1.53125C12.1699 1.06526 11.7922 0.6875 11.3262 0.6875H5.13867C4.67268 0.6875 4.29492 1.06526 4.29492 1.53125V4.27536M12.7324 6.875H12.738V6.88063H12.7324V6.875ZM10.4824 6.875H10.488V6.88063H10.4824V6.875Z" stroke="#3E3E3E" stroke-linecap="round" stroke-linejoin="round"/>
</svg>
