<svg width="54" height="35" viewBox="0 0 54 35" fill="none" xmlns="http://www.w3.org/2000/svg">
<rect width="53.6207" height="34.5556" rx="5" fill="#2E68B3"/>
<path d="M22.0547 7.9375H32.76V25.4224H22.0547V7.9375Z" fill="#FF5F00"/>
<path d="M23.1569 16.6801C23.1556 14.9965 23.5373 13.3346 24.2731 11.8202C25.0088 10.3059 26.0794 8.97874 27.4038 7.93923C25.7635 6.65009 23.7936 5.84845 21.7192 5.62593C19.6448 5.40341 17.5496 5.76899 15.6732 6.68088C13.7967 7.59277 12.2147 9.01418 11.1078 10.7827C10.001 12.5511 9.41406 14.5954 9.41406 16.6816C9.41406 18.7679 10.001 20.8121 11.1078 22.5806C12.2147 24.3491 13.7967 25.7705 15.6732 26.6824C17.5496 27.5943 19.6448 27.9599 21.7192 27.7373C23.7936 27.5148 25.7635 26.7132 27.4038 25.4241C26.079 24.3842 25.0082 23.0566 24.2724 21.5416C23.5366 20.0267 23.1551 18.3642 23.1569 16.6801V16.6801Z" fill="#EB001B"/>
<path d="M44.3303 23.573V23.2148H44.4847V23.1406H44.1172V23.2148H44.2624V23.5731L44.3303 23.573ZM45.0438 23.573V23.1407H44.9326L44.8029 23.4495L44.6731 23.1406H44.562V23.573H44.6423V23.2457L44.7627 23.5268H44.8461L44.9666 23.2457V23.573H45.0438Z" fill="#F79E1B"/>
<path d="M45.3978 16.6845C45.3977 18.771 44.8106 20.8153 43.7036 22.5839C42.5966 24.3524 41.0143 25.7738 39.1376 26.6856C37.2609 27.5973 35.1655 27.9626 33.091 27.7398C31.0165 27.517 29.0465 26.7149 27.4062 25.4254C28.7301 24.3849 29.8004 23.0574 30.5364 21.543C31.2724 20.0286 31.6548 18.3667 31.6548 16.683C31.6548 14.9992 31.2724 13.3374 30.5364 11.8229C29.8004 10.3085 28.7301 8.98097 27.4062 7.94054C29.0465 6.65099 31.0165 5.84895 33.091 5.62611C35.1655 5.40326 37.2609 5.7686 39.1376 6.68037C41.0143 7.59213 42.5966 9.01353 43.7036 10.7821C44.8107 12.5506 45.3977 14.595 45.3978 16.6814V16.6845Z" fill="#F79E1B"/>
</svg>
