<svg width="211" height="38" viewBox="0 0 211 38" fill="none" xmlns="http://www.w3.org/2000/svg">
<g clip-path="url(#clip0_1_7716)">
<path d="M196.294 24.6603C196.728 25.5209 197.297 26.216 197.998 26.8118C198.734 27.4077 199.536 27.838 200.472 28.1359C201.408 28.4338 202.377 28.5662 203.413 28.5662C204.449 28.5662 205.418 28.4669 206.354 28.2352C207.29 28.0035 208.092 27.6394 208.761 27.176C209.463 26.7125 209.997 26.1167 210.398 25.3885C210.799 24.6603 211 23.7997 211 22.8397C211 21.9791 210.866 21.2509 210.566 20.6882C210.265 20.1254 209.897 19.6289 209.396 19.2317C208.894 18.8345 208.36 18.5035 207.725 18.2056C207.09 17.9408 206.454 17.676 205.819 17.4443C204.95 17.1132 204.182 16.8484 203.513 16.6167C202.878 16.385 202.31 16.1864 201.876 15.9878C201.441 15.7892 201.107 15.5575 200.906 15.2927C200.706 15.0279 200.572 14.6969 200.572 14.2997C200.572 13.6045 200.839 13.108 201.374 12.7439C201.909 12.3798 202.544 12.2143 203.313 12.2143C204.416 12.2143 205.184 12.4791 205.652 13.0087C206.12 13.5383 206.354 14.2334 206.354 15.1272H210.699C210.699 14.2003 210.499 13.3397 210.131 12.5784C209.763 11.784 209.229 11.122 208.594 10.5592C207.958 9.99652 207.19 9.5331 206.287 9.23519C205.418 8.90418 204.449 8.73868 203.446 8.73868C202.444 8.73868 201.541 8.83798 200.672 9.06969C199.803 9.30139 199.068 9.6655 198.399 10.1289C197.731 10.5923 197.23 11.1882 196.829 11.8502C196.428 12.5122 196.26 13.3066 196.26 14.2003C196.26 14.9948 196.361 15.6899 196.595 16.2526C196.829 16.8153 197.129 17.2787 197.531 17.676C197.932 18.0401 198.433 18.3711 199.001 18.669C199.569 18.9669 200.171 19.2317 200.806 19.4634C201.809 19.8275 202.678 20.1254 203.413 20.3902C204.148 20.622 204.75 20.8868 205.251 21.0854C205.753 21.3171 206.12 21.5819 206.354 21.8467C206.588 22.1115 206.722 22.4756 206.722 22.9059C206.722 23.7003 206.421 24.2631 205.819 24.5941C205.218 24.9251 204.482 25.0906 203.614 25.0906C202.544 25.0906 201.675 24.8258 200.973 24.3293C200.271 23.8328 199.937 22.9721 199.937 21.7143H195.592C195.659 22.8397 195.859 23.7997 196.294 24.6603ZM179.148 28.1028V18.3049C179.148 16.6829 179.515 15.3258 180.251 14.2334C180.986 13.1411 182.156 12.5784 183.693 12.5784C184.495 12.5784 185.164 12.7108 185.665 13.0087C186.2 13.3066 186.601 13.7038 186.935 14.2003C187.236 14.6969 187.47 15.2927 187.604 16.0209C187.738 16.716 187.804 17.4774 187.804 18.3049V28.1028H192.25V16.8815C192.25 15.5906 192.149 14.4983 191.982 13.6376C191.815 12.777 191.481 11.9826 191.013 11.2875C190.478 10.5261 189.709 9.89721 188.774 9.4338C187.838 8.97038 186.668 8.73868 185.264 8.73868C183.86 8.73868 182.624 9.00348 181.554 9.5331C180.485 10.0627 179.649 10.824 179.048 11.8502V9.23519H174.602V28.1028H179.148ZM155.718 16.3519C155.986 15.6237 156.353 14.9948 156.855 14.4652C157.356 13.9355 157.924 13.5052 158.626 13.1742C159.328 12.8432 160.063 12.6777 160.899 12.6777C161.734 12.6777 162.503 12.8432 163.205 13.1742C163.907 13.5052 164.508 13.9355 164.976 14.4652C165.478 14.9948 165.845 15.6568 166.113 16.385C166.38 17.1132 166.514 17.8746 166.514 18.7021C166.514 19.4965 166.38 20.2578 166.113 21.0192C165.845 21.7474 165.444 22.3763 164.976 22.939C164.475 23.4686 163.907 23.899 163.205 24.23C162.503 24.561 161.734 24.7265 160.899 24.7265C160.063 24.7265 159.294 24.561 158.626 24.23C157.924 23.899 157.356 23.4686 156.855 22.939C156.353 22.4094 155.986 21.7474 155.718 21.0192C155.451 20.2909 155.317 19.5296 155.317 18.7021C155.317 17.8415 155.451 17.0801 155.718 16.3519ZM151.607 22.4425C152.075 23.6341 152.777 24.6934 153.646 25.6202C154.515 26.547 155.551 27.2753 156.788 27.8049C158.024 28.3345 159.395 28.5993 160.932 28.5993C162.47 28.5993 163.84 28.3345 165.077 27.8049C166.313 27.2753 167.383 26.547 168.252 25.6202C169.121 24.6934 169.823 23.6341 170.291 22.4425C170.759 21.2509 170.993 19.993 170.993 18.6359C170.993 17.3118 170.759 16.054 170.291 14.8293C169.823 13.6376 169.154 12.5784 168.252 11.6516C167.383 10.7247 166.313 10.0296 165.077 9.5C163.84 8.97038 162.47 8.70557 160.932 8.70557C159.395 8.70557 158.024 8.97038 156.788 9.5C155.551 10.0296 154.515 10.7578 153.646 11.6516C152.777 12.5784 152.109 13.6376 151.607 14.8293C151.139 16.0209 150.872 17.3118 150.872 18.6028C150.872 19.993 151.106 21.284 151.607 22.4425ZM146.259 9.23519H141.814V28.1028H146.259V9.23519ZM141.914 4.99826C142.483 5.56098 143.185 5.85888 143.987 5.85888C144.822 5.85888 145.524 5.56098 146.092 4.99826C146.661 4.43554 146.961 3.74042 146.961 2.94599C146.961 2.11847 146.661 1.42334 146.092 0.860627C145.524 0.297909 144.822 0 143.987 0C143.185 0 142.483 0.297909 141.914 0.860627C141.346 1.42334 141.045 2.11847 141.045 2.94599C141.045 3.74042 141.346 4.43554 141.914 4.99826ZM128.445 12.9094V21.6812C128.445 23.27 128.646 24.5279 129.08 25.4216C129.514 26.3153 130.049 26.9774 130.684 27.4077C131.319 27.838 132.021 28.1028 132.723 28.2021C133.425 28.3014 134.06 28.3345 134.595 28.3345C135.263 28.3345 135.865 28.3014 136.466 28.2683C137.068 28.2021 137.536 28.169 137.904 28.1028V24.23C137.703 24.2962 137.336 24.3293 136.901 24.3624C136.433 24.3955 136.032 24.3955 135.664 24.3955C135.23 24.3955 134.829 24.3624 134.495 24.2631C134.16 24.1638 133.859 23.9983 133.626 23.7334C133.392 23.4686 133.191 23.1045 133.091 22.608C132.957 22.1115 132.924 21.4826 132.924 20.6551V12.9094H137.302V9.23519H132.924V3.50871H128.478V9.23519H125.236V12.9094H128.445ZM106.987 16.3519C107.255 15.6237 107.622 14.9948 108.124 14.4652C108.625 13.9355 109.193 13.5052 109.895 13.1742C110.597 12.8432 111.332 12.6777 112.168 12.6777C113.003 12.6777 113.772 12.8432 114.474 13.1742C115.176 13.5052 115.778 13.9355 116.246 14.4652C116.747 14.9948 117.115 15.6568 117.382 16.385C117.649 17.1132 117.783 17.8746 117.783 18.7021C117.783 19.4965 117.649 20.2578 117.382 21.0192C117.115 21.7474 116.713 22.3763 116.246 22.939C115.744 23.4686 115.176 23.899 114.474 24.23C113.772 24.561 113.003 24.7265 112.168 24.7265C111.332 24.7265 110.564 24.561 109.895 24.23C109.193 23.899 108.625 23.4686 108.124 22.939C107.622 22.4094 107.255 21.7474 106.987 21.0192C106.72 20.2909 106.586 19.5296 106.586 18.7021C106.586 17.8415 106.72 17.0801 106.987 16.3519ZM102.843 22.4425C103.311 23.6341 103.979 24.6934 104.848 25.6202C105.717 26.547 106.72 27.2753 107.923 27.8049C109.126 28.3345 110.43 28.5993 111.901 28.5993C113.003 28.5993 114.14 28.3345 115.243 27.8049C116.346 27.2753 117.215 26.5139 117.783 25.554V28.1028H122.228V9.23519H117.783V11.784C117.181 10.824 116.346 10.0958 115.243 9.5662C114.14 9.03658 113.037 8.77178 111.901 8.77178C110.463 8.77178 109.16 9.03658 107.957 9.5662C106.753 10.0958 105.717 10.824 104.882 11.7178C104.013 12.6446 103.344 13.7038 102.876 14.8955C102.408 16.0871 102.141 17.378 102.141 18.669C102.141 19.993 102.375 21.284 102.843 22.4425ZM93.7852 28.1028V19.9599C93.7852 17.6098 94.2866 15.8554 95.2892 14.7631C96.2919 13.6707 97.7626 13.1411 99.6677 13.1411C100.002 13.1411 100.303 13.1411 100.537 13.1742C100.771 13.2073 101.071 13.2404 101.439 13.3397V9.26829C100.971 9.06969 100.403 8.97038 99.6677 8.97038C99.0326 8.97038 98.431 9.06969 97.796 9.23519C97.1609 9.4007 96.5928 9.6655 96.0914 9.96341C95.5566 10.2613 95.0887 10.6254 94.6876 11.0226C94.2866 11.4199 93.9857 11.8171 93.7852 12.2805V9.23519H89.3399V28.1028H93.7852ZM73.0629 13.5052C73.9653 12.777 75.1017 12.4129 76.4052 12.4129C77.7755 12.4129 78.8785 12.8101 79.7141 13.5714C80.5831 14.3328 81.0176 15.392 81.0176 16.716H71.6925C71.6591 15.3258 72.127 14.2334 73.0629 13.5052ZM67.6818 22.3763C68.0828 23.5679 68.651 24.6272 69.4532 25.554C70.2553 26.4808 71.2246 27.2091 72.4278 27.7718C73.5977 28.3345 75.0014 28.5993 76.6057 28.5993C77.8424 28.5993 78.9454 28.4338 79.9146 28.0697C80.8839 27.7387 81.7529 27.2753 82.4548 26.7125C83.1901 26.1498 83.7583 25.4878 84.2262 24.7596C84.6941 24.0314 84.9949 23.2369 85.1286 22.4425H80.6499C80.5162 22.7735 80.3491 23.1045 80.1486 23.4024C79.948 23.7003 79.6807 23.9652 79.3799 24.1969C79.079 24.4286 78.678 24.5941 78.2435 24.7265C77.7755 24.8589 77.2408 24.9251 76.6392 24.9251C75.7367 24.9251 75.0014 24.7927 74.3664 24.5279C73.7313 24.2631 73.23 23.9321 72.8289 23.4686C72.4278 23.0383 72.127 22.5087 71.9599 21.9129C71.7594 21.3171 71.6591 20.6551 71.6591 19.993H85.162C85.2623 19.3641 85.3292 18.8345 85.3292 18.4042C85.3292 17.9739 85.3626 17.5767 85.3626 17.2456C85.3626 16.0209 85.1286 14.9286 84.6941 13.8693C84.2596 12.8432 83.6246 11.9495 82.8224 11.1882C82.0203 10.4268 81.0844 9.83101 79.9815 9.4007C78.9119 8.97038 77.7421 8.73868 76.5389 8.73868C75.0349 8.73868 73.6979 9.00348 72.5281 9.5C71.3583 9.99652 70.389 10.6916 69.5869 11.5854C68.7847 12.4791 68.1831 13.5383 67.782 14.7631C67.3475 15.9878 67.147 17.2787 67.147 18.7021C67.1136 19.9599 67.2807 21.1847 67.6818 22.3763ZM50.4689 28.1028V18.3049C50.4689 16.6829 50.8365 15.3258 51.5718 14.2334C52.3071 13.1411 53.477 12.5784 55.0144 12.5784C55.8166 12.5784 56.485 12.7108 56.9864 13.0087C57.5211 13.3066 57.9222 13.7038 58.2565 14.2003C58.5573 14.6969 58.7912 15.2927 58.9249 16.0209C59.0586 16.716 59.1255 17.4774 59.1255 18.3049V28.1028H63.5707V16.8815C63.5707 15.5906 63.4705 14.4983 63.3033 13.6376C63.1362 12.777 62.802 11.9826 62.3341 11.2875C61.7993 10.5261 61.0306 9.89721 60.0947 9.4338C59.1589 8.97038 57.9891 8.73868 56.5853 8.73868C55.1815 8.73868 53.9449 9.00348 52.8753 9.5331C51.8058 10.0627 50.9702 10.824 50.3686 11.8502V9.23519H45.9233V28.1028H50.4689ZM29.7131 13.5052C30.6156 12.777 31.7519 12.4129 33.0554 12.4129C34.4258 12.4129 35.5288 12.8101 36.3643 13.5714C37.2333 14.3328 37.6678 15.392 37.6678 16.716H28.3428C28.3428 15.3258 28.8107 14.2334 29.7131 13.5052ZM24.3654 22.3763C24.7665 23.5679 25.3347 24.6272 26.1369 25.554C26.939 26.4808 27.9083 27.2091 29.1115 27.7718C30.2813 28.3345 31.6851 28.5993 33.2894 28.5993C34.5261 28.5993 35.629 28.4338 36.5983 28.0697C37.5676 27.7387 38.4366 27.2753 39.1384 26.7125C39.8738 26.1498 40.4419 25.4878 40.9099 24.7596C41.3778 24.0314 41.6786 23.2369 41.8123 22.4425H37.3336C37.1999 22.7735 37.0328 23.1045 36.8323 23.4024C36.6317 23.7003 36.3643 23.9652 36.0635 24.1969C35.7627 24.4286 35.3616 24.5941 34.9271 24.7265C34.4592 24.8589 33.9244 24.9251 33.3228 24.9251C32.4204 24.9251 31.6851 24.7927 31.0501 24.5279C30.415 24.2631 29.9137 23.9321 29.5126 23.4686C29.1115 23.0383 28.8107 22.5087 28.6436 21.9129C28.4431 21.3171 28.3428 20.6551 28.3428 19.993H41.8457C41.946 19.3641 42.0128 18.8345 42.0128 18.4042C42.0128 17.9739 42.0463 17.5767 42.0463 17.2456C42.0463 16.0209 41.8123 14.9286 41.3778 13.8693C40.9433 12.8432 40.3083 11.9495 39.5061 11.1882C38.7039 10.4268 37.7681 9.83101 36.6651 9.4007C35.5956 8.97038 34.4258 8.73868 33.2226 8.73868C31.7185 8.73868 30.3816 9.00348 29.2118 9.5C28.042 9.99652 27.0727 10.6916 26.2706 11.5854C25.4684 12.4791 24.8668 13.5383 24.4657 14.7631C24.0312 15.9878 23.8307 17.2787 23.8307 18.7021C23.7638 19.9599 23.9644 21.1847 24.3654 22.3763ZM4.84635 16.3519C5.11373 15.6237 5.48139 14.9948 5.98273 14.4652C6.48408 13.9355 7.05227 13.5052 7.75416 13.1742C8.42262 12.8432 9.19135 12.6777 10.0269 12.6777C10.8625 12.6777 11.6312 12.8432 12.3331 13.1742C13.035 13.5052 13.6366 13.9355 14.1045 14.4652C14.6059 14.9948 14.9735 15.6568 15.2409 16.385C15.5083 17.1132 15.642 17.8746 15.642 18.7021C15.642 19.4965 15.5083 20.2578 15.2409 21.0192C14.9735 21.7474 14.5725 22.3763 14.1045 22.939C13.6032 23.4686 13.035 23.899 12.3331 24.23C11.6312 24.561 10.8625 24.7265 10.0269 24.7265C9.19135 24.7265 8.42262 24.561 7.75416 24.23C7.0857 23.899 6.48408 23.4686 6.01616 22.939C5.51481 22.4094 5.14716 21.7474 4.87977 21.0192C4.61239 20.2909 4.47869 19.5296 4.47869 18.7021C4.44527 17.8415 4.57896 17.0801 4.84635 16.3519ZM0.701885 22.4425C1.16981 23.6341 1.83827 24.6934 2.70727 25.6202C3.57627 26.547 4.57896 27.2753 5.7822 27.8049C6.98543 28.3345 8.28893 28.5993 9.72612 28.5993C10.8625 28.5993 11.9655 28.3345 13.0684 27.8049C14.1714 27.2753 15.0404 26.5139 15.642 25.554V29.0296C15.642 30.8171 15.1407 32.108 14.1045 32.9024C13.1019 33.6969 11.6647 34.0941 9.89324 34.0941C8.28893 34.0941 7.05227 33.6969 6.2167 32.9355C5.3477 32.1742 4.87977 31.2805 4.7795 30.2544H0.334231C0.401077 31.2143 0.635039 32.1742 1.03612 33.101C1.47062 34.0279 2.07223 34.8554 2.87439 35.5836C3.67654 36.3118 4.64581 36.9077 5.81562 37.338C6.98543 37.8014 8.35577 38 9.92666 38C11.4975 38 12.9347 37.8345 14.2048 37.5035C15.4749 37.1725 16.5444 36.6429 17.4134 35.9146C18.3159 35.1864 18.9843 34.2596 19.4188 33.101C19.8867 31.9756 20.1207 30.6185 20.1207 28.9965V9.23519H15.642V11.784C15.0404 10.824 14.1714 10.0958 13.0684 9.5662C11.9655 9.03658 10.8291 8.77178 9.72612 8.77178C8.28893 8.77178 6.98543 9.03658 5.7822 9.5662C4.57896 10.0958 3.57627 10.824 2.70727 11.7178C1.83827 12.6446 1.16981 13.7038 0.701885 14.8955C0.233962 16.0871 0 17.3449 0 18.669C0 19.993 0.233962 21.284 0.701885 22.4425Z" fill="#EC6500"/>
<path d="M70.6914 2.94452V4.93059H82.9911V1.42188L70.6914 2.94452Z" fill="#EC6500"/>
<path d="M27.7734 2.94452V4.93059H40.0731V1.42188L27.7734 2.94452Z" fill="#EC6500"/>
</g>
<defs>
<clipPath id="clip0_1_7716">
<rect width="211" height="38" fill="white"/>
</clipPath>
</defs>
</svg>
