<svg width="70" height="80" viewBox="0 0 70 80" fill="none" xmlns="http://www.w3.org/2000/svg">
<circle cx="30" cy="50" r="30" fill="#EC6500"/>
<path d="M40.2007 0C39.8301 0 39.4149 0.209006 38.9662 0.621445C38.0075 1.49927 36.8538 2.5025 35.5831 3.2605C31.8377 5.49268 27.6603 6.48477 23.7059 7.22604C19.7906 7.95896 15.5742 8.35189 10.8089 8.42713C9.69138 8.44385 9.21484 8.94268 9.21484 10.0992V15.5807C9.21484 24.8801 9.21484 34.1795 9.21763 43.4817C9.21763 46.1207 9.80563 48.7068 10.9649 51.1731C12.7401 54.9547 15.5965 58.2542 19.6902 61.2611C24.6033 64.87 30.2771 67.5034 37.035 69.312C38.2361 69.6325 39.3703 69.9391 40.5686 69.6548C45.7045 68.4454 50.6789 66.4751 55.3523 63.7971C59.6968 61.3085 63.013 58.5468 65.4933 55.3532C68.4221 51.5799 69.8266 47.5141 69.7848 42.9215C69.7514 39.3378 69.7598 35.6955 69.7681 32.173C69.7709 30.6069 69.7737 29.0435 69.7737 27.4774V22.3302C69.7737 18.2755 69.7737 14.218 69.7737 10.1633C69.7737 8.93153 69.3445 8.48844 68.0738 8.41041C67.4691 8.37418 66.8615 8.33796 66.2568 8.30451C63.8881 8.16796 61.4413 8.02584 59.0364 7.76667C55.0485 7.33751 51.5093 6.51542 48.2154 5.25024C45.8996 4.36126 43.2689 3.12395 41.3321 0.702261C40.9838 0.267528 40.6299 0.033441 40.276 0.00557349C40.2509 0.00557349 40.2258 0.00278675 40.2007 0.00278675V0ZM39.4594 66.9405C39.2839 66.9405 39.0999 66.921 38.9188 66.8736C31.5228 64.856 25.8239 62.2643 20.9805 58.7196C17.1682 55.9273 14.7075 52.9984 13.2361 49.5038C12.4196 47.5615 12.0044 45.5634 12.0016 43.5625C11.9932 35.3945 11.9932 27.2293 11.996 19.0614V12.4735C11.996 12.3537 12.0044 12.2338 12.0127 12.0917L12.0545 11.2557L12.6899 11.2278C21.7803 10.8377 31.3277 9.68674 39.5514 3.93768L39.9304 3.67294L40.3205 3.91817C40.7859 4.21078 41.2457 4.51175 41.7028 4.81272C42.6698 5.44531 43.6702 6.10019 44.6874 6.6464C48.0064 8.42992 51.8326 9.61429 56.3862 10.2692C58.4985 10.5729 60.675 10.7485 62.779 10.9213C63.746 10.9993 64.713 11.0773 65.6772 11.1693C65.8165 11.1832 65.9559 11.1972 66.1119 11.2167L66.9786 11.3142V12.872C66.9786 15.7646 66.9702 18.6601 66.9591 21.5527C66.9368 28.3022 66.9145 35.2803 67.0176 42.1412C67.1068 48.0129 64.8551 52.8786 60.126 57.0169C56.1688 60.4836 51.2474 63.1728 44.6428 65.483C43.3191 65.9456 41.9592 66.3386 40.6438 66.7204L40.301 66.8207C40.1088 66.8764 39.7966 66.9461 39.4539 66.9461L39.4594 66.9405Z" fill="#3E3E3E"/>
<path d="M27.9855 33.5359C27.7765 33.5359 27.5758 33.5359 27.3752 33.5359C26.0849 33.5415 25.6028 34.0236 25.6028 35.3139C25.6 40.6449 25.6028 45.976 25.6028 51.307C25.6028 52.6697 26.0738 53.1296 27.4643 53.1296C35.4846 53.1296 43.5049 53.1296 51.5251 53.1296C52.952 53.1296 53.4341 52.6391 53.4341 51.1844C53.4341 45.9453 53.4341 40.7062 53.4341 35.4671C53.4341 34.0208 52.9492 33.5331 51.514 33.5331H38.8176H32.7592L32.6477 32.9702C32.6393 32.92 32.6282 32.881 32.6226 32.8504C32.6031 32.764 32.5808 32.6692 32.5808 32.5494C32.5808 31.9781 32.5808 31.4096 32.5752 30.8383C32.5697 29.392 32.5669 27.8955 32.5808 26.4213C32.6115 23.6095 34.3002 21.1293 36.8836 20.1038C39.5616 19.0392 42.5713 19.6858 44.5471 21.7563C45.7482 23.0132 46.3641 24.5793 46.4867 26.6861C46.5257 27.3521 47.0914 27.8816 47.8048 27.915C48.3733 27.9401 49.0477 27.5416 49.1397 26.9007C49.2261 26.2959 49.2066 25.5853 49.0812 24.8468C48.2674 20.0592 43.9535 16.5981 39.0517 16.8015C34.0717 17.0049 29.9195 21.1488 29.7996 26.0423C29.7662 27.419 29.7718 28.8263 29.7774 30.1862C29.7774 30.8161 29.7829 31.4459 29.7829 32.0757V32.5884V33.5331H28.4899C28.3171 33.5331 28.1499 33.5331 27.9883 33.5331L27.9855 33.5359ZM50.6055 50.2592H28.4341V36.3923H50.6055V50.2592Z" fill="#3E3E3E"/>
<path d="M37.4278 43.3593C37.4167 42.2056 38.3224 41.2609 39.4622 41.2358C40.6047 41.2107 41.6107 42.2028 41.6024 43.3454C41.594 44.4684 40.6298 45.4299 39.5095 45.4355C38.3753 45.441 37.439 44.5075 37.4278 43.3593Z" fill="#3E3E3E"/>
</svg>
