<svg width="75" height="80" viewBox="0 0 75 80" fill="none" xmlns="http://www.w3.org/2000/svg">
<circle cx="30" cy="50" r="30" fill="#EC6500"/>
<path d="M42.8584 12.7894C42.7838 12.8032 42.7093 12.8143 42.6319 12.8253C42.491 12.8474 42.3557 12.8668 42.2424 12.9027C41.5159 13.1402 41.1099 13.7535 41.1513 14.5462C41.2038 15.513 41.9855 15.8777 42.6347 16.0158C49.836 17.5323 54.8385 21.7834 57.5069 28.6505C57.7748 29.3383 57.9488 30.0593 58.1173 30.7554C58.2278 31.2056 58.3383 31.6725 58.4737 32.1144C58.7223 32.9293 59.5482 33.4127 60.352 33.2138C61.1807 33.0094 61.7083 32.1752 61.5536 31.3134C61.4625 30.8051 61.3575 30.3189 61.2387 29.8687C59.3189 22.5845 54.8716 17.3582 48.0184 14.328C46.8803 13.8253 45.6345 13.4689 44.4329 13.1237M43.444 0C42.5684 0.0165738 41.8668 0.535885 41.7314 1.27342C41.5905 2.03305 41.9911 2.78163 42.6789 3.04957C42.9882 3.17111 43.3252 3.23465 43.6843 3.30646L43.7368 3.31751C49.1426 4.36719 54.0402 6.59359 58.2969 9.93044C64.233 14.5877 68.2715 20.5321 70.2935 27.6008C70.4814 28.2555 70.6333 28.9267 70.7824 29.5759C70.9316 30.2222 71.0835 30.8907 71.2686 31.5316C71.5089 32.3658 72.3404 32.8105 73.205 32.5674C74.4066 32.2304 74.39 31.12 74.2712 30.4874C73.1 24.2032 70.5449 18.5764 66.6749 13.7617C61.363 7.15158 54.5263 2.73191 46.3527 0.621516C45.64 0.436442 44.897 0.292803 44.2423 0.162975C43.9661 0.107729 43.6982 0.0552459 43.4468 0.00276229L43.444 0Z" fill="#3E3E3E"/>
<path d="M17.7488 4.0161C16.271 4.0161 14.7738 4.64314 13.3319 5.89446C11.832 7.19826 10.4177 8.6678 9.05032 10.0876C8.58073 10.5765 8.10838 11.0655 7.63603 11.5489C5.56707 13.6565 4.60027 16.358 4.68038 19.8109C4.74667 22.6395 5.39581 25.5924 6.71895 29.1032C9.56963 36.6692 14.144 43.7765 20.7017 50.8287C25.602 56.0991 31.2343 60.516 37.4439 63.9606C42.0045 66.4909 47.4931 69.151 53.6199 69.7034C57.4153 70.0487 60.4483 69.0488 62.8902 66.6511C64.0945 65.4688 65.2906 64.2313 66.4452 63.0353L67.1773 62.2784C67.6247 61.8171 68.1468 61.2674 68.6302 60.6707C70.5997 58.2565 70.5445 54.8423 68.5004 52.5496C67.3181 51.2265 66.0364 49.9448 64.7962 48.7072L64.6912 48.6023C64.2989 48.21 63.9067 47.8178 63.5145 47.4228C61.9897 45.8897 60.4124 44.3069 58.7882 42.8374C57.3711 41.5557 55.6115 41.1441 53.5564 41.6109C52.3106 41.8954 51.1946 42.5832 49.9378 43.8428C48.9157 44.8649 47.902 45.8952 46.8634 46.9504L45.2391 48.5995L44.9657 48.4476C36.792 43.9368 30.5327 37.6995 25.8257 29.3767L25.6655 29.095L25.9003 28.8712C26.008 28.769 26.1047 28.6779 26.1931 28.5977C26.3506 28.4513 26.4776 28.3326 26.5992 28.2083C27.0853 27.7111 27.5798 27.2194 28.0715 26.7277C29.1847 25.62 30.3338 24.4709 31.3835 23.2803C33.48 20.8992 33.4828 17.5375 31.3835 15.289C28.0908 11.7588 25.0854 8.72028 22.1933 6.00219C20.7818 4.67352 19.2736 4.00781 17.7515 4.00781L17.7488 4.0161ZM54.8519 66.6069H54.8409C52.4239 66.5075 49.9295 66.0047 47.6285 65.1512C37.7588 61.4884 29.0245 55.4196 21.6629 47.1079C16.8483 41.6717 13.2877 36.2548 10.785 30.5534C9.63592 27.9376 8.40672 24.8106 8.01999 21.4545C7.76863 19.2722 7.7189 16.9713 9.05309 14.9189C9.39561 14.3913 9.78785 13.9023 10.2215 13.4631C11.7712 11.8859 13.365 10.2865 15.0998 8.57941C16.4284 7.27008 17.7792 6.9607 19.1161 7.65956C19.5194 7.8695 19.9199 8.17335 20.3067 8.55731C22.6242 10.8583 24.9667 13.209 27.2345 15.4824L28.3035 16.5541C28.5438 16.7972 28.7317 17.0016 28.8891 17.2005C30.0603 18.6728 30.0161 20.1479 28.7676 21.46C27.2815 23.0207 25.7152 24.5482 24.1987 26.0288L23.7319 26.4846C22.3342 27.8492 22.1602 28.7552 22.9529 30.5203C24.265 33.4428 26.2042 36.3239 29.0493 39.5834C32.6293 43.6854 36.281 46.8897 40.2118 49.384C41.5984 50.2624 43.0431 51.0055 44.148 51.5524C45.3054 52.127 46.3302 51.9143 47.3744 50.8839C48.2666 50.0028 49.1533 49.1161 50.04 48.2294C50.7444 47.525 51.4515 46.8178 52.1587 46.1162C52.4542 45.8234 52.7774 45.5168 53.1448 45.2599C54.4127 44.3732 55.7579 44.4312 56.9347 45.4201C57.3186 45.7433 57.6694 46.0996 58.012 46.4449C58.1086 46.5416 58.2026 46.641 58.2992 46.735C60.6748 49.105 63.0476 51.4778 65.4177 53.8534C66.1331 54.5716 67.2104 55.6544 66.7822 57.2013C66.5751 57.9499 66.1276 58.7344 65.553 59.3586C64.4564 60.5492 63.299 61.7149 62.1803 62.8447C61.6969 63.3308 61.2162 63.817 60.7356 64.3059C59.2439 65.8307 57.3242 66.582 54.8657 66.6014H54.8547L54.8519 66.6069Z" fill="#3E3E3E"/>
<path d="M43.4419 0.00878906C42.5662 0.0253628 41.8646 0.544674 41.7293 1.28221C41.5884 2.04184 41.9889 2.79042 42.6767 3.05836C42.9861 3.1799 43.3231 3.24343 43.6822 3.31525L43.7347 3.3263C49.1405 4.37597 54.038 6.60238 58.2947 9.93923C64.2309 14.5965 68.2694 20.5409 70.2914 27.6096C70.4792 28.2643 70.6311 28.9355 70.7803 29.5847C70.9294 30.231 71.0814 30.8995 71.2664 31.5404C71.5068 32.3746 72.3382 32.8193 73.2028 32.5762C74.4044 32.2392 74.3878 31.1288 74.2691 30.4962C73.0978 24.212 70.5427 18.5852 66.6728 13.7705C61.3609 7.16037 54.5242 2.7407 46.3506 0.630305C45.6379 0.445231 44.8948 0.301592 44.2402 0.171764C43.964 0.116519 43.696 0.0640349 43.4446 0.0115514L43.4419 0.00878906Z" fill="#3E3E3E"/>
<path d="M42.8584 12.7886C42.7838 12.8024 42.7093 12.8134 42.6319 12.8245C42.491 12.8466 42.3557 12.8659 42.2424 12.9018C41.5159 13.1394 41.1099 13.7526 41.1513 14.5454C41.2038 15.5122 41.9855 15.8768 42.6347 16.0149C49.836 17.5314 54.8385 21.7826 57.5069 28.6496C57.7748 29.3375 57.9488 30.0584 58.1173 30.7545C58.2278 31.2048 58.3383 31.6716 58.4737 32.1136C58.7223 32.9284 59.5482 33.4118 60.352 33.213C61.1807 33.0085 61.7083 32.1743 61.5536 31.3125C61.4625 30.8042 61.3575 30.3181 61.2387 29.8678C59.3189 22.5837 54.8716 17.3574 48.0184 14.3272C46.8803 13.8244 45.6345 13.4681 44.4329 13.1228L42.8584 12.7803V12.7886Z" fill="#3E3E3E"/>
</svg>
