<svg width="281" height="67" viewBox="0 0 281 67" fill="none" xmlns="http://www.w3.org/2000/svg">
<g clip-path="url(#clip0_8_2844)">
<path d="M260.485 32.3458C261.061 33.4747 261.815 34.3864 262.747 35.1679C263.723 35.9494 264.787 36.5139 266.029 36.9046C267.271 37.2954 268.557 37.469 269.932 37.469C271.307 37.469 272.593 37.3388 273.835 37.0349C275.077 36.7309 276.141 36.2533 277.028 35.6455C277.96 35.0377 278.669 34.2562 279.202 33.301C279.734 32.3458 280 31.217 280 29.9579C280 28.829 279.823 27.8738 279.423 27.1357C279.024 26.3976 278.536 25.7464 277.871 25.2254C277.206 24.7044 276.496 24.2702 275.653 23.8795C274.811 23.5321 273.968 23.1848 273.125 22.8809C271.972 22.4467 270.952 22.0993 270.065 21.7954C269.222 21.4915 268.468 21.231 267.892 20.9705C267.315 20.71 266.872 20.4061 266.605 20.0587C266.339 19.7114 266.162 19.2772 266.162 18.7562C266.162 17.8445 266.517 17.1932 267.226 16.7156C267.936 16.238 268.779 16.0209 269.799 16.0209C271.262 16.0209 272.283 16.3683 272.904 17.063C273.524 17.7576 273.835 18.6694 273.835 19.8417H279.601C279.601 18.626 279.335 17.4971 278.847 16.4985C278.359 15.4565 277.649 14.5882 276.807 13.8501C275.964 13.112 274.944 12.5041 273.746 12.1134C272.593 11.6792 271.307 11.4621 269.976 11.4621C268.646 11.4621 267.448 11.5924 266.295 11.8963C265.142 12.2002 264.166 12.6778 263.279 13.2857C262.392 13.8935 261.727 14.675 261.194 15.5434C260.662 16.4117 260.44 17.4537 260.44 18.626C260.44 19.668 260.573 20.5797 260.884 21.3178C261.194 22.0559 261.594 22.6638 262.126 23.1848C262.658 23.6624 263.323 24.0965 264.077 24.4873C264.831 24.878 265.63 25.2254 266.472 25.5293C267.803 26.0069 268.956 26.3976 269.932 26.745C270.908 27.0489 271.706 27.3962 272.371 27.6567C273.037 27.9607 273.525 28.308 273.835 28.6553C274.145 29.0027 274.323 29.4803 274.323 30.0447C274.323 31.0867 273.924 31.8248 273.125 32.259C272.327 32.6931 271.351 32.9102 270.198 32.9102C268.779 32.9102 267.626 32.5629 266.694 31.9116C265.763 31.2604 265.319 30.1315 265.319 28.4817H259.553C259.642 29.9579 259.908 31.217 260.485 32.3458ZM237.732 36.8612V24.0097C237.732 21.8823 238.22 20.1022 239.195 18.6694C240.171 17.2366 241.723 16.4985 243.764 16.4985C244.828 16.4985 245.715 16.6722 246.38 17.063C247.09 17.4537 247.622 17.9747 248.066 18.626C248.465 19.2772 248.776 20.0587 248.953 21.0139C249.13 21.9257 249.219 22.9243 249.219 24.0097V36.8612H255.118V22.1428C255.118 20.4495 254.985 19.0167 254.763 17.8879C254.541 16.759 254.098 15.717 253.477 14.8053C252.767 13.8067 251.747 12.9817 250.505 12.3739C249.263 11.7661 247.711 11.4621 245.848 11.4621C243.985 11.4621 242.344 11.8095 240.925 12.5041C239.506 13.1988 238.397 14.1974 237.599 15.5434V12.1134H231.7V36.8612H237.732ZM206.64 21.4481C206.995 20.4929 207.483 19.668 208.148 18.9733C208.814 18.2786 209.568 17.7142 210.499 17.28C211.43 16.8459 212.406 16.6288 213.515 16.6288C214.624 16.6288 215.644 16.8459 216.575 17.28C217.507 17.7142 218.305 18.2786 218.926 18.9733C219.591 19.668 220.079 20.5363 220.434 21.4915C220.789 22.4467 220.966 23.4453 220.966 24.5307C220.966 25.5727 220.789 26.5713 220.434 27.5699C220.079 28.5251 219.547 29.35 218.926 30.0881C218.261 30.7828 217.507 31.3472 216.575 31.7814C215.644 32.2155 214.624 32.4326 213.515 32.4326C212.406 32.4326 211.386 32.2155 210.499 31.7814C209.568 31.3472 208.814 30.7828 208.148 30.0881C207.483 29.3934 206.995 28.5251 206.64 27.5699C206.285 26.6147 206.108 25.6161 206.108 24.5307C206.108 23.4019 206.285 22.4033 206.64 21.4481ZM201.185 29.4369C201.806 30.9999 202.737 32.3892 203.89 33.6049C205.044 34.8206 206.419 35.7758 208.06 36.4704C209.701 37.1651 211.519 37.5124 213.559 37.5124C215.6 37.5124 217.418 37.1651 219.059 36.4704C220.7 35.7758 222.119 34.8206 223.273 33.6049C224.426 32.3892 225.357 30.9999 225.978 29.4369C226.599 27.8738 226.91 26.224 226.91 24.4439C226.91 22.7072 226.599 21.0573 225.978 19.4509C225.357 17.8879 224.47 16.4985 223.273 15.2828C222.119 14.0672 220.7 13.1554 219.059 12.4607C217.418 11.7661 215.6 11.4187 213.559 11.4187C211.519 11.4187 209.701 11.7661 208.06 12.4607C206.419 13.1554 205.044 14.1106 203.89 15.2828C202.737 16.4985 201.85 17.8879 201.185 19.4509C200.564 21.0139 200.209 22.7072 200.209 24.4005C200.209 26.224 200.52 27.9173 201.185 29.4369ZM194.088 12.1134H188.189V36.8612H194.088V12.1134ZM188.323 6.55599C189.077 7.29409 190.008 7.68484 191.072 7.68484C192.181 7.68484 193.113 7.29409 193.867 6.55599C194.621 5.8179 195.02 4.90614 195.02 3.86413C195.02 2.7787 194.621 1.86694 193.867 1.12885C193.113 0.390755 192.181 0 191.072 0C190.008 0 189.077 0.390755 188.323 1.12885C187.569 1.86694 187.169 2.7787 187.169 3.86413C187.169 4.90614 187.569 5.8179 188.323 6.55599ZM170.448 16.9327V28.4383C170.448 30.5223 170.714 32.1721 171.291 33.3444C171.868 34.5167 172.577 35.385 173.42 35.9494C174.263 36.5139 175.194 36.8612 176.125 36.9914C177.057 37.1217 177.9 37.1651 178.609 37.1651C179.496 37.1651 180.295 37.1217 181.093 37.0783C181.891 36.9914 182.512 36.948 183 36.8612V31.7814C182.734 31.8682 182.246 31.9116 181.67 31.955C181.049 31.9985 180.516 31.9985 180.029 31.9985C179.452 31.9985 178.92 31.955 178.476 31.8248C178.033 31.6945 177.633 31.4775 177.323 31.1301C177.013 30.7828 176.746 30.3052 176.613 29.6539C176.436 29.0027 176.392 28.1778 176.392 27.0923V16.9327H182.202V12.1134H176.392V4.60222H170.493V12.1134H166.19V16.9327H170.448ZM141.974 21.4481C142.329 20.4929 142.816 19.668 143.482 18.9733C144.147 18.2786 144.901 17.7142 145.832 17.28C146.764 16.8459 147.74 16.6288 148.848 16.6288C149.957 16.6288 150.977 16.8459 151.909 17.28C152.84 17.7142 153.639 18.2786 154.259 18.9733C154.925 19.668 155.413 20.5363 155.767 21.4915C156.122 22.4467 156.3 23.4453 156.3 24.5307C156.3 25.5727 156.122 26.5713 155.767 27.5699C155.413 28.5251 154.88 29.35 154.259 30.0881C153.594 30.7828 152.84 31.3472 151.909 31.7814C150.977 32.2155 149.957 32.4326 148.848 32.4326C147.74 32.4326 146.719 32.2155 145.832 31.7814C144.901 31.3472 144.147 30.7828 143.482 30.0881C142.816 29.3934 142.329 28.5251 141.974 27.5699C141.619 26.6147 141.441 25.6161 141.441 24.5307C141.441 23.4019 141.619 22.4033 141.974 21.4481ZM136.474 29.4369C137.095 30.9999 137.982 32.3892 139.135 33.6049C140.288 34.8206 141.619 35.7758 143.216 36.4704C144.812 37.1651 146.542 37.5124 148.494 37.5124C149.957 37.5124 151.465 37.1651 152.929 36.4704C154.393 35.7758 155.546 34.7772 156.3 33.5181V36.8612H162.199V12.1134H156.3V15.4565C155.501 14.1974 154.393 13.2422 152.929 12.5476C151.465 11.8529 150.002 11.5056 148.494 11.5056C146.586 11.5056 144.857 11.8529 143.26 12.5476C141.663 13.2422 140.288 14.1974 139.179 15.3697C138.026 16.5854 137.139 17.9747 136.518 19.5377C135.897 21.1008 135.543 22.794 135.543 24.4873C135.543 26.224 135.853 27.9173 136.474 29.4369ZM124.454 36.8612V26.1806C124.454 23.0979 125.12 20.7968 126.45 19.3641C127.781 17.9313 129.732 17.2366 132.26 17.2366C132.704 17.2366 133.103 17.2366 133.414 17.28C133.724 17.3235 134.123 17.3669 134.611 17.4971V12.1568C133.99 11.8963 133.236 11.7661 132.26 11.7661C131.418 11.7661 130.619 11.8963 129.777 12.1134C128.934 12.3305 128.18 12.6778 127.515 13.0686C126.805 13.4593 126.184 13.9369 125.652 14.4579C125.12 14.9789 124.72 15.4999 124.454 16.1078V12.1134H118.555V36.8612H124.454ZM96.9555 17.7142C98.153 16.759 99.661 16.2814 101.391 16.2814C103.209 16.2814 104.673 16.8025 105.782 17.801C106.935 18.7996 107.511 20.189 107.511 21.9257H95.137C95.0927 20.1022 95.7136 18.6694 96.9555 17.7142ZM89.8147 29.35C90.3469 30.913 91.1009 32.3024 92.1654 33.5181C93.2299 34.7337 94.5161 35.6889 96.1128 36.427C97.6651 37.1651 99.528 37.5124 101.657 37.5124C103.298 37.5124 104.762 37.2954 106.048 36.8178C107.334 36.3836 108.487 35.7758 109.419 35.0377C110.394 34.2996 111.148 33.4312 111.769 32.4761C112.39 31.5209 112.789 30.4789 112.967 29.4369H107.024C106.846 29.871 106.624 30.3052 106.358 30.6959C106.092 31.0867 105.737 31.434 105.338 31.738C104.939 32.0419 104.407 32.259 103.83 32.4326C103.209 32.6063 102.5 32.6931 101.701 32.6931C100.504 32.6931 99.528 32.5195 98.6853 32.1721C97.8426 31.8248 97.1773 31.3906 96.645 30.7828C96.1128 30.2184 95.7136 29.5237 95.4919 28.7422C95.2257 27.9607 95.0927 27.0923 95.0927 26.224H113.011C113.144 25.3991 113.233 24.7044 113.233 24.14C113.233 23.5755 113.277 23.0545 113.277 22.6204C113.277 21.0139 112.967 19.5812 112.39 18.1918C111.814 16.8459 110.971 15.6736 109.907 14.675C108.842 13.6764 107.6 12.8949 106.137 12.3305C104.717 11.7661 103.165 11.4621 101.568 11.4621C99.5723 11.4621 97.7982 11.8095 96.2458 12.4607C94.6935 13.112 93.4073 14.0238 92.3428 15.196C91.2783 16.3683 90.48 17.7576 89.9477 19.3641C89.3711 20.9705 89.105 22.6638 89.105 24.5307C89.0607 26.1806 89.2824 27.787 89.8147 29.35ZM66.9729 36.8612V24.0097C66.9729 21.8823 67.4608 20.1022 68.4366 18.6694C69.4123 17.2366 70.9647 16.4985 73.0049 16.4985C74.0694 16.4985 74.9564 16.6722 75.6217 17.063C76.3314 17.4537 76.8636 17.9747 77.3072 18.626C77.7063 19.2772 78.0168 20.0587 78.1942 21.0139C78.3716 21.9257 78.4603 22.9243 78.4603 24.0097V36.8612H84.3593V22.1428C84.3593 20.4495 84.2262 19.0167 84.0044 17.8879C83.7827 16.759 83.3391 15.717 82.7182 14.8053C82.0086 13.8067 80.9884 12.9817 79.7466 12.3739C78.5047 11.7661 76.9523 11.4621 75.0895 11.4621C73.2267 11.4621 71.5856 11.8095 70.1663 12.5041C68.747 13.1988 67.6382 14.1974 66.8399 15.5434V12.1134H60.9409V36.8612H66.9729ZM39.4298 17.7142C40.6273 16.759 42.1353 16.2814 43.865 16.2814C45.6835 16.2814 47.1472 16.8025 48.256 17.801C49.4092 18.7996 49.9857 20.189 49.9857 21.9257H37.6113C37.6113 20.1022 38.2322 18.6694 39.4298 17.7142ZM32.3333 29.35C32.8655 30.913 33.6195 32.3024 34.684 33.5181C35.7485 34.7337 37.0347 35.6889 38.6314 36.427C40.1838 37.1651 42.0466 37.5124 44.1755 37.5124C45.8166 37.5124 47.2802 37.2954 48.5665 36.8178C49.8527 36.3836 51.0059 35.7758 51.9373 35.0377C52.913 34.2996 53.667 33.4312 54.288 32.4761C54.9089 31.5209 55.3081 30.4789 55.4855 29.4369H49.5422C49.3648 29.871 49.143 30.3052 48.8769 30.6959C48.6108 31.0867 48.256 31.434 47.8568 31.738C47.4576 32.0419 46.9254 32.259 46.3488 32.4326C45.7279 32.6063 45.0182 32.6931 44.2199 32.6931C43.0223 32.6931 42.0466 32.5195 41.2039 32.1721C40.3612 31.8248 39.6959 31.3906 39.1636 30.7828C38.6314 30.2184 38.2322 29.5237 38.0105 28.7422C37.7443 27.9607 37.6113 27.0923 37.6113 26.224H55.5299C55.6629 25.3991 55.7516 24.7044 55.7516 24.14C55.7516 23.5755 55.796 23.0545 55.796 22.6204C55.796 21.0139 55.4855 19.5812 54.9089 18.1918C54.3323 16.8459 53.4896 15.6736 52.4252 14.675C51.3607 13.6764 50.1188 12.8949 48.6552 12.3305C47.2359 11.7661 45.6835 11.4621 44.0868 11.4621C42.0909 11.4621 40.3168 11.8095 38.7645 12.4607C37.2121 13.112 35.9259 14.0238 34.8614 15.196C33.7969 16.3683 32.9986 17.7576 32.4663 19.3641C31.8898 20.9705 31.6236 22.6638 31.6236 24.5307C31.5349 26.1806 31.801 27.787 32.3333 29.35ZM6.43117 21.4481C6.786 20.4929 7.27388 19.668 7.93917 18.9733C8.60447 18.2786 9.35847 17.7142 10.2899 17.28C11.1769 16.8459 12.1971 16.6288 13.3059 16.6288C14.4147 16.6288 15.4348 16.8459 16.3662 17.28C17.2976 17.7142 18.096 18.2786 18.7169 18.9733C19.3822 19.668 19.8701 20.5363 20.2249 21.4915C20.5798 22.4467 20.7572 23.4453 20.7572 24.5307C20.7572 25.5727 20.5798 26.5713 20.2249 27.5699C19.8701 28.5251 19.3379 29.35 18.7169 30.0881C18.0516 30.7828 17.2976 31.3472 16.3662 31.7814C15.4348 32.2155 14.4147 32.4326 13.3059 32.4326C12.1971 32.4326 11.1769 32.2155 10.2899 31.7814C9.40282 31.3472 8.60447 30.7828 7.98353 30.0881C7.31823 29.3934 6.83035 28.5251 6.47553 27.5699C6.1207 26.6147 5.94329 25.6161 5.94329 24.5307C5.89894 23.4019 6.07635 22.4033 6.43117 21.4481ZM0.931411 29.4369C1.55235 30.9999 2.43941 32.3892 3.59259 33.6049C4.74576 34.8206 6.07635 35.7758 7.67306 36.4704C9.26976 37.1651 10.9995 37.5124 12.9067 37.5124C14.4147 37.5124 15.8783 37.1651 17.342 36.4704C18.8056 35.7758 19.9588 34.7772 20.7572 33.5181V38.0769C20.7572 40.4214 20.0919 42.1147 18.7169 43.1567C17.3863 44.1987 15.4792 44.7197 13.1285 44.7197C10.9995 44.7197 9.35847 44.1987 8.24964 43.2001C7.09647 42.2015 6.47553 41.0292 6.34247 39.6833H0.443529C0.532235 40.9424 0.842705 42.2015 1.37494 43.4172C1.95153 44.6329 2.74988 45.7183 3.81435 46.6735C4.87882 47.6287 6.16506 48.4102 7.71741 48.9746C9.26976 49.5824 11.0882 49.8429 13.1728 49.8429C15.2574 49.8429 17.1646 49.6258 18.85 49.1917C20.5354 48.7575 21.9547 48.0628 23.1079 47.1076C24.3054 46.1525 25.1925 44.9368 25.769 43.4172C26.39 41.941 26.7005 40.1609 26.7005 38.0335V12.1134H20.7572V15.4565C19.9588 14.1974 18.8056 13.2422 17.342 12.5476C15.8783 11.8529 14.3703 11.5056 12.9067 11.5056C10.9995 11.5056 9.26976 11.8529 7.67306 12.5476C6.07635 13.2422 4.74576 14.1974 3.59259 15.3697C2.43941 16.5854 1.55235 17.9747 0.931411 19.5377C0.31047 21.1008 0 22.7506 0 24.4873C0 26.224 0.31047 27.9173 0.931411 29.4369Z" fill="#EC6500"/>
<path d="M93.8066 3.86438V6.46941H110.129V1.86719L93.8066 3.86438Z" fill="#EC6500"/>
<path d="M36.8574 3.86438V6.46941H53.1793V1.86719L36.8574 3.86438Z" fill="#EC6500"/>
</g>
<path d="M73.312 63V51.896H74.368L79.072 59.624H78.352L83.056 51.896H84.112V63H82.608V54.536L82.96 54.632L79.248 60.728H78.192L74.48 54.632L74.816 54.536V63H73.312ZM89.8699 63.16C89.1765 63.16 88.5472 62.9893 87.9819 62.648C87.4165 62.296 86.9685 61.8213 86.6379 61.224C86.3179 60.6267 86.1579 59.9547 86.1579 59.208C86.1579 58.4613 86.3179 57.7893 86.6379 57.192C86.9685 56.5947 87.4112 56.12 87.9659 55.768C88.5312 55.416 89.1659 55.24 89.8699 55.24C90.4459 55.24 90.9579 55.3627 91.4059 55.608C91.8645 55.8427 92.2325 56.1733 92.5099 56.6C92.7872 57.016 92.9419 57.5013 92.9739 58.056V60.344C92.9419 60.888 92.7872 61.3733 92.5099 61.8C92.2432 62.2267 91.8805 62.5627 91.4219 62.808C90.9739 63.0427 90.4565 63.16 89.8699 63.16ZM90.1099 61.8C90.8245 61.8 91.4005 61.56 91.8379 61.08C92.2752 60.5893 92.4939 59.9653 92.4939 59.208C92.4939 58.6853 92.3925 58.232 92.1899 57.848C91.9979 57.4533 91.7205 57.1493 91.3579 56.936C90.9952 56.712 90.5739 56.6 90.0939 56.6C89.6139 56.6 89.1872 56.712 88.8139 56.936C88.4512 57.16 88.1632 57.4693 87.9499 57.864C87.7472 58.248 87.6459 58.6907 87.6459 59.192C87.6459 59.704 87.7472 60.1573 87.9499 60.552C88.1632 60.936 88.4565 61.24 88.8299 61.464C89.2032 61.688 89.6299 61.8 90.1099 61.8ZM92.3979 63V60.952L92.6699 59.096L92.3979 57.256V55.4H93.8539V63H92.3979ZM99.2624 66.344C98.4837 66.344 97.7904 66.2 97.1824 65.912C96.585 65.624 96.105 65.2187 95.7424 64.696L96.6704 63.752C96.9797 64.1467 97.3477 64.4453 97.7744 64.648C98.201 64.8613 98.7077 64.968 99.2944 64.968C100.073 64.968 100.686 64.76 101.134 64.344C101.593 63.9387 101.822 63.3893 101.822 62.696V60.808L102.078 59.096L101.822 57.4V55.4H103.262V62.696C103.262 63.4213 103.092 64.056 102.75 64.6C102.42 65.144 101.95 65.5707 101.342 65.88C100.745 66.1893 100.052 66.344 99.2624 66.344ZM99.2624 62.872C98.569 62.872 97.945 62.7067 97.3904 62.376C96.8464 62.0453 96.4144 61.592 96.0944 61.016C95.7744 60.4293 95.6144 59.7733 95.6144 59.048C95.6144 58.3227 95.7744 57.6773 96.0944 57.112C96.4144 56.536 96.8464 56.0827 97.3904 55.752C97.945 55.4107 98.569 55.24 99.2624 55.24C99.8597 55.24 100.388 55.3573 100.846 55.592C101.305 55.8267 101.668 56.1573 101.934 56.584C102.212 57 102.361 57.4907 102.382 58.056V60.072C102.35 60.6267 102.196 61.1173 101.918 61.544C101.652 61.96 101.289 62.2853 100.83 62.52C100.372 62.7547 99.849 62.872 99.2624 62.872ZM99.5504 61.512C100.02 61.512 100.43 61.4107 100.782 61.208C101.145 61.0053 101.422 60.7227 101.614 60.36C101.806 59.9867 101.902 59.5547 101.902 59.064C101.902 58.5733 101.801 58.1467 101.598 57.784C101.406 57.4107 101.134 57.1227 100.782 56.92C100.43 56.7067 100.014 56.6 99.5344 56.6C99.0544 56.6 98.633 56.7067 98.2704 56.92C97.9077 57.1227 97.6197 57.4107 97.4064 57.784C97.2037 58.1467 97.1024 58.568 97.1024 59.048C97.1024 59.528 97.2037 59.9547 97.4064 60.328C97.6197 60.7013 97.9077 60.9947 98.2704 61.208C98.6437 61.4107 99.0704 61.512 99.5504 61.512ZM108.768 63.16C108.075 63.16 107.445 62.9893 106.88 62.648C106.315 62.296 105.867 61.8213 105.536 61.224C105.216 60.6267 105.056 59.9547 105.056 59.208C105.056 58.4613 105.216 57.7893 105.536 57.192C105.867 56.5947 106.309 56.12 106.864 55.768C107.429 55.416 108.064 55.24 108.768 55.24C109.344 55.24 109.856 55.3627 110.304 55.608C110.763 55.8427 111.131 56.1733 111.408 56.6C111.685 57.016 111.84 57.5013 111.872 58.056V60.344C111.84 60.888 111.685 61.3733 111.408 61.8C111.141 62.2267 110.779 62.5627 110.32 62.808C109.872 63.0427 109.355 63.16 108.768 63.16ZM109.008 61.8C109.723 61.8 110.299 61.56 110.736 61.08C111.173 60.5893 111.392 59.9653 111.392 59.208C111.392 58.6853 111.291 58.232 111.088 57.848C110.896 57.4533 110.619 57.1493 110.256 56.936C109.893 56.712 109.472 56.6 108.992 56.6C108.512 56.6 108.085 56.712 107.712 56.936C107.349 57.16 107.061 57.4693 106.848 57.864C106.645 58.248 106.544 58.6907 106.544 59.192C106.544 59.704 106.645 60.1573 106.848 60.552C107.061 60.936 107.355 61.24 107.728 61.464C108.101 61.688 108.528 61.8 109.008 61.8ZM111.296 63V60.952L111.568 59.096L111.296 57.256V55.4H112.752V63H111.296ZM114.4 62.216L118.912 56.184H120.608L116.096 62.216H114.4ZM114.4 63V62.216L115.68 61.688H120.512V63H114.4ZM114.672 56.712V55.4H120.608V56.184L119.28 56.712H114.672ZM122.341 63V55.4H123.781V63H122.341ZM123.061 53.88C122.794 53.88 122.575 53.7947 122.405 53.624C122.234 53.4427 122.149 53.2187 122.149 52.952C122.149 52.696 122.234 52.4827 122.405 52.312C122.575 52.1307 122.794 52.04 123.061 52.04C123.327 52.04 123.546 52.1307 123.717 52.312C123.887 52.4827 123.973 52.696 123.973 52.952C123.973 53.2187 123.887 53.4427 123.717 53.624C123.546 53.7947 123.327 53.88 123.061 53.88ZM131.439 63V58.568C131.439 57.992 131.258 57.5173 130.895 57.144C130.532 56.7707 130.063 56.584 129.487 56.584C129.103 56.584 128.762 56.6693 128.463 56.84C128.164 57.0107 127.93 57.2453 127.759 57.544C127.588 57.8427 127.503 58.184 127.503 58.568L126.911 58.232C126.911 57.656 127.039 57.144 127.295 56.696C127.551 56.248 127.908 55.896 128.367 55.64C128.826 55.3733 129.343 55.24 129.919 55.24C130.495 55.24 131.002 55.384 131.439 55.672C131.887 55.96 132.239 56.3387 132.495 56.808C132.751 57.2667 132.879 57.7573 132.879 58.28V63H131.439ZM126.063 63V55.4H127.503V63H126.063ZM138.508 63.16C137.751 63.16 137.068 62.9893 136.46 62.648C135.852 62.296 135.372 61.8213 135.02 61.224C134.668 60.6267 134.492 59.9493 134.492 59.192C134.492 58.4453 134.663 57.7733 135.004 57.176C135.356 56.5787 135.826 56.1093 136.412 55.768C137.01 55.416 137.676 55.24 138.412 55.24C139.116 55.24 139.735 55.4 140.268 55.72C140.812 56.04 141.234 56.4827 141.532 57.048C141.842 57.6133 141.996 58.2533 141.996 58.968C141.996 59.0747 141.991 59.192 141.98 59.32C141.97 59.4373 141.948 59.576 141.916 59.736H135.5V58.536H141.148L140.62 59C140.62 58.488 140.53 58.056 140.348 57.704C140.167 57.3413 139.911 57.064 139.58 56.872C139.25 56.6693 138.85 56.568 138.38 56.568C137.89 56.568 137.458 56.6747 137.084 56.888C136.711 57.1013 136.423 57.4 136.22 57.784C136.018 58.168 135.916 58.6213 135.916 59.144C135.916 59.6773 136.023 60.1467 136.236 60.552C136.45 60.9467 136.754 61.256 137.148 61.48C137.543 61.6933 137.996 61.8 138.508 61.8C138.935 61.8 139.324 61.7253 139.676 61.576C140.039 61.4267 140.348 61.2027 140.604 60.904L141.532 61.848C141.17 62.2747 140.722 62.6 140.188 62.824C139.666 63.048 139.106 63.16 138.508 63.16ZM147.231 63V55.4H148.671V63H147.231ZM147.951 53.88C147.684 53.88 147.465 53.7947 147.295 53.624C147.124 53.4427 147.039 53.2187 147.039 52.952C147.039 52.696 147.124 52.4827 147.295 52.312C147.465 52.1307 147.684 52.04 147.951 52.04C148.217 52.04 148.436 52.1307 148.607 52.312C148.777 52.4827 148.863 52.696 148.863 52.952C148.863 53.2187 148.777 53.4427 148.607 53.624C148.436 53.7947 148.217 53.88 147.951 53.88ZM156.329 63V58.568C156.329 57.992 156.148 57.5173 155.785 57.144C155.422 56.7707 154.953 56.584 154.377 56.584C153.993 56.584 153.652 56.6693 153.353 56.84C153.054 57.0107 152.82 57.2453 152.649 57.544C152.478 57.8427 152.393 58.184 152.393 58.568L151.801 58.232C151.801 57.656 151.929 57.144 152.185 56.696C152.441 56.248 152.798 55.896 153.257 55.64C153.716 55.3733 154.233 55.24 154.809 55.24C155.385 55.24 155.892 55.384 156.329 55.672C156.777 55.96 157.129 56.3387 157.385 56.808C157.641 57.2667 157.769 57.7573 157.769 58.28V63H156.329ZM150.953 63V55.4H152.393V63H150.953ZM160.953 63V52.216H162.393V63H160.953ZM159.081 56.712V55.4H164.265V56.712H159.081ZM169.121 63.16C168.364 63.16 167.681 62.9893 167.073 62.648C166.465 62.296 165.985 61.8213 165.633 61.224C165.281 60.6267 165.105 59.9493 165.105 59.192C165.105 58.4453 165.276 57.7733 165.617 57.176C165.969 56.5787 166.438 56.1093 167.025 55.768C167.622 55.416 168.289 55.24 169.025 55.24C169.729 55.24 170.348 55.4 170.881 55.72C171.425 56.04 171.846 56.4827 172.145 57.048C172.454 57.6133 172.609 58.2533 172.609 58.968C172.609 59.0747 172.604 59.192 172.593 59.32C172.582 59.4373 172.561 59.576 172.529 59.736H166.113V58.536H171.761L171.233 59C171.233 58.488 171.142 58.056 170.961 57.704C170.78 57.3413 170.524 57.064 170.193 56.872C169.862 56.6693 169.462 56.568 168.993 56.568C168.502 56.568 168.07 56.6747 167.697 56.888C167.324 57.1013 167.036 57.4 166.833 57.784C166.63 58.168 166.529 58.6213 166.529 59.144C166.529 59.6773 166.636 60.1467 166.849 60.552C167.062 60.9467 167.366 61.256 167.761 61.48C168.156 61.6933 168.609 61.8 169.121 61.8C169.548 61.8 169.937 61.7253 170.289 61.576C170.652 61.4267 170.961 61.2027 171.217 60.904L172.145 61.848C171.782 62.2747 171.334 62.6 170.801 62.824C170.278 63.048 169.718 63.16 169.121 63.16ZM174.339 63V55.4H175.779V63H174.339ZM175.779 58.664L175.235 58.424C175.235 57.4533 175.459 56.68 175.907 56.104C176.355 55.528 177 55.24 177.843 55.24C178.227 55.24 178.574 55.3093 178.883 55.448C179.192 55.576 179.48 55.7947 179.747 56.104L178.803 57.08C178.643 56.9093 178.467 56.7867 178.275 56.712C178.083 56.6373 177.859 56.6 177.603 56.6C177.07 56.6 176.632 56.7707 176.291 57.112C175.95 57.4533 175.779 57.9707 175.779 58.664ZM183.823 66.344C183.044 66.344 182.351 66.2 181.743 65.912C181.146 65.624 180.666 65.2187 180.303 64.696L181.231 63.752C181.54 64.1467 181.908 64.4453 182.335 64.648C182.762 64.8613 183.268 64.968 183.855 64.968C184.634 64.968 185.247 64.76 185.695 64.344C186.154 63.9387 186.383 63.3893 186.383 62.696V60.808L186.639 59.096L186.383 57.4V55.4H187.823V62.696C187.823 63.4213 187.652 64.056 187.311 64.6C186.98 65.144 186.511 65.5707 185.903 65.88C185.306 66.1893 184.612 66.344 183.823 66.344ZM183.823 62.872C183.13 62.872 182.506 62.7067 181.951 62.376C181.407 62.0453 180.975 61.592 180.655 61.016C180.335 60.4293 180.175 59.7733 180.175 59.048C180.175 58.3227 180.335 57.6773 180.655 57.112C180.975 56.536 181.407 56.0827 181.951 55.752C182.506 55.4107 183.13 55.24 183.823 55.24C184.42 55.24 184.948 55.3573 185.407 55.592C185.866 55.8267 186.228 56.1573 186.495 56.584C186.772 57 186.922 57.4907 186.943 58.056V60.072C186.911 60.6267 186.756 61.1173 186.479 61.544C186.212 61.96 185.85 62.2853 185.391 62.52C184.932 62.7547 184.41 62.872 183.823 62.872ZM184.111 61.512C184.58 61.512 184.991 61.4107 185.343 61.208C185.706 61.0053 185.983 60.7227 186.175 60.36C186.367 59.9867 186.463 59.5547 186.463 59.064C186.463 58.5733 186.362 58.1467 186.159 57.784C185.967 57.4107 185.695 57.1227 185.343 56.92C184.991 56.7067 184.575 56.6 184.095 56.6C183.615 56.6 183.194 56.7067 182.831 56.92C182.468 57.1227 182.18 57.4107 181.967 57.784C181.764 58.1467 181.663 58.568 181.663 59.048C181.663 59.528 181.764 59.9547 181.967 60.328C182.18 60.7013 182.468 60.9947 182.831 61.208C183.204 61.4107 183.631 61.512 184.111 61.512ZM193.617 63.16C192.859 63.16 192.177 62.9893 191.569 62.648C190.961 62.296 190.481 61.8213 190.129 61.224C189.777 60.6267 189.601 59.9493 189.601 59.192C189.601 58.4453 189.771 57.7733 190.113 57.176C190.465 56.5787 190.934 56.1093 191.521 55.768C192.118 55.416 192.785 55.24 193.521 55.24C194.225 55.24 194.843 55.4 195.377 55.72C195.921 56.04 196.342 56.4827 196.641 57.048C196.95 57.6133 197.105 58.2533 197.105 58.968C197.105 59.0747 197.099 59.192 197.089 59.32C197.078 59.4373 197.057 59.576 197.025 59.736H190.609V58.536H196.257L195.729 59C195.729 58.488 195.638 58.056 195.457 57.704C195.275 57.3413 195.019 57.064 194.689 56.872C194.358 56.6693 193.958 56.568 193.489 56.568C192.998 56.568 192.566 56.6747 192.193 56.888C191.819 57.1013 191.531 57.4 191.329 57.784C191.126 58.168 191.025 58.6213 191.025 59.144C191.025 59.6773 191.131 60.1467 191.345 60.552C191.558 60.9467 191.862 61.256 192.257 61.48C192.651 61.6933 193.105 61.8 193.617 61.8C194.043 61.8 194.433 61.7253 194.785 61.576C195.147 61.4267 195.457 61.2027 195.713 60.904L196.641 61.848C196.278 62.2747 195.83 62.6 195.297 62.824C194.774 63.048 194.214 63.16 193.617 63.16ZM192.545 54.264L191.889 53.608L193.969 51.032L195.105 52.168L192.545 54.264ZM204.211 63V58.568C204.211 57.992 204.029 57.5173 203.667 57.144C203.304 56.7707 202.835 56.584 202.259 56.584C201.875 56.584 201.533 56.6693 201.235 56.84C200.936 57.0107 200.701 57.2453 200.531 57.544C200.36 57.8427 200.275 58.184 200.275 58.568L199.683 58.232C199.683 57.656 199.811 57.144 200.067 56.696C200.323 56.248 200.68 55.896 201.139 55.64C201.597 55.3733 202.115 55.24 202.691 55.24C203.267 55.24 203.773 55.384 204.211 55.672C204.659 55.96 205.011 56.3387 205.267 56.808C205.523 57.2667 205.651 57.7573 205.651 58.28V63H204.211ZM198.835 63V55.4H200.275V63H198.835ZM211.28 63.16C210.523 63.16 209.84 62.9893 209.232 62.648C208.624 62.296 208.144 61.8213 207.792 61.224C207.44 60.6267 207.264 59.9493 207.264 59.192C207.264 58.4453 207.435 57.7733 207.776 57.176C208.128 56.5787 208.598 56.1093 209.184 55.768C209.782 55.416 210.448 55.24 211.184 55.24C211.888 55.24 212.507 55.4 213.04 55.72C213.584 56.04 214.006 56.4827 214.304 57.048C214.614 57.6133 214.768 58.2533 214.768 58.968C214.768 59.0747 214.763 59.192 214.752 59.32C214.742 59.4373 214.72 59.576 214.688 59.736H208.272V58.536H213.92L213.392 59C213.392 58.488 213.302 58.056 213.12 57.704C212.939 57.3413 212.683 57.064 212.352 56.872C212.022 56.6693 211.622 56.568 211.152 56.568C210.662 56.568 210.23 56.6747 209.856 56.888C209.483 57.1013 209.195 57.4 208.992 57.784C208.79 58.168 208.688 58.6213 208.688 59.144C208.688 59.6773 208.795 60.1467 209.008 60.552C209.222 60.9467 209.526 61.256 209.92 61.48C210.315 61.6933 210.768 61.8 211.28 61.8C211.707 61.8 212.096 61.7253 212.448 61.576C212.811 61.4267 213.12 61.2027 213.376 60.904L214.304 61.848C213.942 62.2747 213.494 62.6 212.96 62.824C212.438 63.048 211.878 63.16 211.28 63.16ZM210.208 54.264L209.552 53.608L211.632 51.032L212.768 52.168L210.208 54.264ZM216.499 63V55.4H217.939V63H216.499ZM217.939 58.664L217.395 58.424C217.395 57.4533 217.619 56.68 218.067 56.104C218.515 55.528 219.16 55.24 220.003 55.24C220.387 55.24 220.733 55.3093 221.043 55.448C221.352 55.576 221.64 55.7947 221.907 56.104L220.963 57.08C220.803 56.9093 220.627 56.7867 220.435 56.712C220.243 56.6373 220.019 56.6 219.763 56.6C219.229 56.6 218.792 56.7707 218.451 57.112C218.109 57.4533 217.939 57.9707 217.939 58.664ZM226.062 63.16C225.369 63.16 224.74 62.9893 224.174 62.648C223.609 62.296 223.161 61.8213 222.83 61.224C222.51 60.6267 222.35 59.9547 222.35 59.208C222.35 58.4613 222.51 57.7893 222.83 57.192C223.161 56.5947 223.604 56.12 224.158 55.768C224.724 55.416 225.358 55.24 226.062 55.24C226.638 55.24 227.15 55.3627 227.598 55.608C228.057 55.8427 228.425 56.1733 228.702 56.6C228.98 57.016 229.134 57.5013 229.166 58.056V60.344C229.134 60.888 228.98 61.3733 228.702 61.8C228.436 62.2267 228.073 62.5627 227.614 62.808C227.166 63.0427 226.649 63.16 226.062 63.16ZM226.302 61.8C227.017 61.8 227.593 61.56 228.03 61.08C228.468 60.5893 228.686 59.9653 228.686 59.208C228.686 58.6853 228.585 58.232 228.382 57.848C228.19 57.4533 227.913 57.1493 227.55 56.936C227.188 56.712 226.766 56.6 226.286 56.6C225.806 56.6 225.38 56.712 225.006 56.936C224.644 57.16 224.356 57.4693 224.142 57.864C223.94 58.248 223.838 58.6907 223.838 59.192C223.838 59.704 223.94 60.1573 224.142 60.552C224.356 60.936 224.649 61.24 225.022 61.464C225.396 61.688 225.822 61.8 226.302 61.8ZM228.59 63V60.952L228.862 59.096L228.59 57.256V55.4H230.046V63H228.59ZM233.44 63V52.216H234.88V63H233.44ZM231.568 56.712V55.4H236.752V56.712H231.568ZM238.338 63V55.4H239.778V63H238.338ZM239.058 53.88C238.792 53.88 238.573 53.7947 238.402 53.624C238.232 53.4427 238.146 53.2187 238.146 52.952C238.146 52.696 238.232 52.4827 238.402 52.312C238.573 52.1307 238.792 52.04 239.058 52.04C239.325 52.04 239.544 52.1307 239.714 52.312C239.885 52.4827 239.97 52.696 239.97 52.952C239.97 53.2187 239.885 53.4427 239.714 53.624C239.544 53.7947 239.325 53.88 239.058 53.88ZM245.532 63.16C244.786 63.16 244.114 62.984 243.516 62.632C242.919 62.28 242.444 61.8053 242.092 61.208C241.74 60.6 241.564 59.9227 241.564 59.176C241.564 58.44 241.74 57.7787 242.092 57.192C242.444 56.5947 242.919 56.12 243.516 55.768C244.114 55.416 244.786 55.24 245.532 55.24C246.268 55.24 246.935 55.416 247.532 55.768C248.14 56.1093 248.62 56.5787 248.972 57.176C249.324 57.7733 249.5 58.44 249.5 59.176C249.5 59.9227 249.324 60.6 248.972 61.208C248.62 61.8053 248.14 62.28 247.532 62.632C246.935 62.984 246.268 63.16 245.532 63.16ZM245.532 61.768C246.012 61.768 246.439 61.656 246.812 61.432C247.186 61.208 247.479 60.904 247.692 60.52C247.906 60.1253 248.012 59.6773 248.012 59.176C248.012 58.6853 247.9 58.248 247.676 57.864C247.463 57.48 247.17 57.1813 246.796 56.968C246.434 56.744 246.012 56.632 245.532 56.632C245.052 56.632 244.626 56.744 244.252 56.968C243.879 57.1813 243.586 57.48 243.372 57.864C243.159 58.248 243.052 58.6853 243.052 59.176C243.052 59.6773 243.159 60.1253 243.372 60.52C243.586 60.904 243.879 61.208 244.252 61.432C244.626 61.656 245.052 61.768 245.532 61.768ZM256.659 63V58.568C256.659 57.992 256.478 57.5173 256.115 57.144C255.752 56.7707 255.283 56.584 254.707 56.584C254.323 56.584 253.982 56.6693 253.683 56.84C253.384 57.0107 253.15 57.2453 252.979 57.544C252.808 57.8427 252.723 58.184 252.723 58.568L252.131 58.232C252.131 57.656 252.259 57.144 252.515 56.696C252.771 56.248 253.128 55.896 253.587 55.64C254.046 55.3733 254.563 55.24 255.139 55.24C255.715 55.24 256.222 55.384 256.659 55.672C257.107 55.96 257.459 56.3387 257.715 56.808C257.971 57.2667 258.099 57.7573 258.099 58.28V63H256.659ZM251.283 63V55.4H252.723V63H251.283ZM265.584 63V58.568C265.584 57.992 265.403 57.5173 265.04 57.144C264.678 56.7707 264.208 56.584 263.632 56.584C263.248 56.584 262.907 56.6693 262.608 56.84C262.31 57.0107 262.075 57.2453 261.904 57.544C261.734 57.8427 261.648 58.184 261.648 58.568L261.056 58.232C261.056 57.656 261.184 57.144 261.44 56.696C261.696 56.248 262.054 55.896 262.512 55.64C262.971 55.3733 263.488 55.24 264.064 55.24C264.64 55.24 265.147 55.384 265.584 55.672C266.032 55.96 266.384 56.3387 266.64 56.808C266.896 57.2667 267.024 57.7573 267.024 58.28V63H265.584ZM260.208 63V55.4H261.648V63H260.208ZM272.654 63.16C271.897 63.16 271.214 62.9893 270.606 62.648C269.998 62.296 269.518 61.8213 269.166 61.224C268.814 60.6267 268.638 59.9493 268.638 59.192C268.638 58.4453 268.809 57.7733 269.15 57.176C269.502 56.5787 269.971 56.1093 270.558 55.768C271.155 55.416 271.822 55.24 272.558 55.24C273.262 55.24 273.881 55.4 274.414 55.72C274.958 56.04 275.379 56.4827 275.678 57.048C275.987 57.6133 276.142 58.2533 276.142 58.968C276.142 59.0747 276.137 59.192 276.126 59.32C276.115 59.4373 276.094 59.576 276.062 59.736H269.646V58.536H275.294L274.766 59C274.766 58.488 274.675 58.056 274.494 57.704C274.313 57.3413 274.057 57.064 273.726 56.872C273.395 56.6693 272.995 56.568 272.526 56.568C272.035 56.568 271.603 56.6747 271.23 56.888C270.857 57.1013 270.569 57.4 270.366 57.784C270.163 58.168 270.062 58.6213 270.062 59.144C270.062 59.6773 270.169 60.1467 270.382 60.552C270.595 60.9467 270.899 61.256 271.294 61.48C271.689 61.6933 272.142 61.8 272.654 61.8C273.081 61.8 273.47 61.7253 273.822 61.576C274.185 61.4267 274.494 61.2027 274.75 60.904L275.678 61.848C275.315 62.2747 274.867 62.6 274.334 62.824C273.811 63.048 273.251 63.16 272.654 63.16ZM277.872 63V51.576H279.312V63H277.872Z" fill="#EC6500"/>
<defs>
<clipPath id="clip0_8_2844">
<rect width="280" height="49.8429" fill="white"/>
</clipPath>
</defs>
</svg>
