<svg width="11" height="14" viewBox="0 0 11 14" fill="none" xmlns="http://www.w3.org/2000/svg">
<g clip-path="url(#clip0_1_7772)">
<path d="M9.94054 5.65273C9.94054 5.24431 9.95509 4.85287 9.93607 4.46252C9.91928 4.11378 9.8969 3.76066 9.82248 3.42068C9.60928 2.4407 9.09727 1.62551 8.3094 0.984419C7.60379 0.409024 6.79185 0.0849199 5.87248 0.0148432C5.22282 -0.0344294 4.59219 0.0372896 3.98002 0.255184C3.22404 0.524541 2.59229 0.969637 2.08532 1.57952C1.49721 2.28631 1.14972 3.09548 1.08761 4.00702C1.05404 4.50139 1.06746 4.99904 1.05963 5.4956C1.05907 5.54378 1.05963 5.59251 1.05963 5.65273C0.968421 5.65273 0.895118 5.65382 0.821814 5.65273C0.550424 5.64671 0.351777 5.77262 0.200134 5.98176C0.0428948 6.19965 0.000367555 6.44875 0.000367555 6.70771C-0.000192014 8.78045 -0.000192014 10.8532 0.000927124 12.9259C0.000927124 13.0256 0.00876109 13.1268 0.0249886 13.2248C0.0865411 13.5999 0.355694 14.0023 0.923096 13.9995C3.99065 13.9864 7.05821 13.9918 10.1263 13.9951C10.5001 13.9951 10.7536 13.8243 10.8829 13.5002C10.9556 13.319 10.9937 13.1126 10.9948 12.9172C11.0026 10.8537 10.9998 8.78975 10.9987 6.72632C10.9987 6.62176 10.9897 6.51664 10.9746 6.41372C10.9058 5.93522 10.5768 5.65492 10.086 5.65273C10.0446 5.65273 10.0032 5.65273 9.93999 5.65273H9.94054Z" fill="white"/>
<path d="M9.94018 5.65272C10.0034 5.65272 10.0448 5.65272 10.0862 5.65272C10.577 5.65491 10.906 5.93522 10.9748 6.41371C10.9894 6.51719 10.9983 6.6223 10.9989 6.72632C11 8.78975 11.0028 10.8537 10.995 12.9172C10.9944 13.1126 10.9558 13.319 10.8831 13.5002C10.7532 13.8238 10.4997 13.9951 10.1265 13.9951C7.05896 13.9918 3.99084 13.9864 0.923288 13.9995C0.355886 14.0017 0.0867331 13.5993 0.0251806 13.2248C0.0089531 13.1263 0.00111914 13.0256 0.00111914 12.9259C0 10.8532 0 8.78044 0 6.70771C0 6.44875 0.0419676 6.19965 0.199206 5.9823C0.35085 5.77262 0.549496 5.64725 0.820887 5.65327C0.894191 5.65491 0.968054 5.65327 1.0587 5.65327C1.0587 5.59305 1.05814 5.54432 1.0587 5.49615C1.06654 4.99959 1.05311 4.50193 1.08668 4.00757C1.14823 3.09602 1.49629 2.2874 2.08439 1.58007C2.59136 0.970181 3.22312 0.525084 3.97909 0.255727C4.59126 0.0372853 5.22245 -0.0344338 5.87211 0.0148389C6.79148 0.0849155 7.60398 0.40902 8.30959 0.983868C9.09747 1.62551 9.60891 2.44015 9.82267 3.42013C9.89653 3.76011 9.91947 4.11378 9.93626 4.46197C9.95529 4.85177 9.94074 5.24376 9.94074 5.65218L9.94018 5.65272ZM8.09136 5.64561C8.0936 5.59524 8.09752 5.55089 8.09808 5.506C8.09808 5.137 8.10871 4.76746 8.09472 4.39901C8.08633 4.17345 8.06338 3.94351 8.00855 3.72507C7.72876 2.60713 6.646 1.78975 5.48321 1.80453C4.07981 1.82205 2.92375 2.9493 2.9036 4.32346C2.89801 4.72859 2.90192 5.13427 2.90248 5.53994C2.90248 5.57444 2.9092 5.60947 2.91255 5.64561H8.09136Z" fill="#646464"/>
</g>
<defs>
<clipPath id="clip0_1_7772">
<rect width="11" height="14" fill="white"/>
</clipPath>
</defs>
</svg>
