<svg width="17" height="12" viewBox="0 0 17 12" fill="none" xmlns="http://www.w3.org/2000/svg">
<path d="M14.8181 0.34375H1.56024C0.779124 0.34375 0.146484 0.980317 0.146484 1.75751V10.24C0.146484 11.0218 0.783774 11.6538 1.56024 11.6538H14.8181C15.5927 11.6538 16.2319 11.0245 16.2319 10.24V1.75751C16.2319 0.9817 15.6018 0.34375 14.8181 0.34375ZM14.6201 1.28625C14.3313 1.57356 9.3605 6.51819 9.18887 6.68891C8.92183 6.95595 8.56682 7.10298 8.18919 7.10298C7.81156 7.10298 7.45655 6.95592 7.18862 6.68803C7.0732 6.5732 2.15725 1.68317 1.75823 1.28625H14.6201ZM1.08899 10.0482V1.94993L5.1618 6.00129L1.08899 10.0482ZM1.75883 10.7113L5.83003 6.66597L6.52306 7.35535C6.96811 7.8004 7.55981 8.04548 8.18919 8.04548C8.81856 8.04548 9.41026 7.8004 9.85443 7.35623L10.5483 6.66597L14.6195 10.7113H1.75883ZM15.2894 10.0482L11.2166 6.00129L15.2894 1.94993V10.0482Z" fill="#3E3E3E"/>
</svg>
