<svg width="23" height="28" viewBox="0 0 23 28" fill="none" xmlns="http://www.w3.org/2000/svg">
<path d="M20.0641 10.9876C20.0641 17.6757 11.4652 23.4083 11.4652 23.4083C11.4652 23.4083 2.86621 17.6757 2.86621 10.9876C2.86621 8.70704 3.77217 6.51986 5.38478 4.90724C6.9974 3.29463 9.18458 2.38867 11.4652 2.38867C13.7457 2.38867 15.9329 3.29463 17.5455 4.90724C19.1582 6.51986 20.0641 8.70704 20.0641 10.9876Z" stroke="#3E3E3E" stroke-width="1.5" stroke-linecap="round" stroke-linejoin="round"/>
<path d="M11.4652 13.8537C13.0482 13.8537 14.3315 12.5704 14.3315 10.9874C14.3315 9.40439 13.0482 8.12109 11.4652 8.12109C9.88217 8.12109 8.59888 9.40439 8.59888 10.9874C8.59888 12.5704 9.88217 13.8537 11.4652 13.8537Z" stroke="#3E3E3E" stroke-width="1.5" stroke-linecap="round" stroke-linejoin="round"/>
</svg>
