<svg width="19" height="18" viewBox="0 0 19 18" fill="none" xmlns="http://www.w3.org/2000/svg">
<g clip-path="url(#clip0_1_4045)">
<g clip-path="url(#clip1_1_4045)">
<path d="M18.2657 3.57076C17.6147 3.85636 16.9209 4.04566 16.1976 4.13758C16.9417 3.69332 17.5096 2.99519 17.7766 2.15371C17.0829 2.56734 16.3169 2.8595 15.5006 3.02255C14.8418 2.32113 13.903 1.88672 12.8788 1.88672C10.8916 1.88672 9.29183 3.49964 9.29183 5.47694C9.29183 5.76144 9.3159 6.035 9.37499 6.29543C6.39099 6.1499 3.75057 4.71972 1.9768 2.54108C1.66713 3.07835 1.48549 3.69332 1.48549 4.35534C1.48549 5.5984 2.12562 6.7003 3.0798 7.33825C2.50313 7.3273 1.93741 7.15989 1.45813 6.89617C1.45813 6.90711 1.45813 6.92134 1.45813 6.93556C1.45813 8.67979 2.70229 10.1286 4.3338 10.4623C4.04164 10.5422 3.72322 10.5805 3.39275 10.5805C3.16296 10.5805 2.93098 10.5674 2.71323 10.5192C3.17828 11.9406 4.49794 12.9856 6.06709 13.0196C4.84591 13.9748 3.29537 14.5504 1.61679 14.5504C1.32244 14.5504 1.04013 14.5373 0.757812 14.5012C2.34775 15.5265 4.23204 16.1119 6.26405 16.1119C12.8689 16.1119 16.4799 10.6407 16.4799 5.89822C16.4799 5.73956 16.4745 5.58636 16.4668 5.43426C17.1791 4.92872 17.7777 4.29734 18.2657 3.57076Z" fill="#3E3E3E"/>
</g>
</g>
<defs>
<clipPath id="clip0_1_4045">
<rect width="17.5079" height="17.5079" fill="white" transform="translate(0.757812 0.246094)"/>
</clipPath>
<clipPath id="clip1_1_4045">
<rect width="17.5079" height="17.5079" fill="white" transform="translate(0.757812 0.246094)"/>
</clipPath>
</defs>
</svg>
