<svg width="22" height="18" viewBox="0 0 22 18" fill="none" xmlns="http://www.w3.org/2000/svg">
<path d="M21.6854 2.51863C20.893 2.87808 20.0597 3.09865 19.1693 3.20485C20.0842 2.66568 20.7705 1.79973 21.1054 0.778564C20.2558 1.28506 19.3163 1.64451 18.3197 1.84058C17.5191 0.990966 16.3835 0.459961 15.1173 0.459961C12.691 0.459961 10.7303 2.4206 10.7303 4.84689C10.7303 5.19 10.7712 5.52494 10.8447 5.84355C7.19301 5.65565 3.96613 3.90742 1.80943 1.26055C1.42547 1.92227 1.22124 2.69019 1.22124 3.46627C1.22124 4.98577 1.99733 6.32554 3.16554 7.11796C2.44664 7.09345 1.77676 6.89739 1.1804 6.57879V6.6278C1.1804 8.74366 2.69989 10.5246 4.70138 10.933C4.33376 11.0311 3.94981 11.0964 3.54135 11.0964C3.25542 11.0964 2.98583 11.0719 2.71624 11.0229C3.27992 12.763 4.89746 14.0292 6.80908 14.0701C5.30592 15.2546 3.4188 15.9408 1.36013 15.9408C1.00068 15.9408 0.657565 15.9163 0.314453 15.8755C2.25875 17.1172 4.57066 17.8443 7.04597 17.8443C15.1091 17.8443 19.5287 11.1618 19.5287 5.36156C19.5287 5.16549 19.5287 4.9776 19.5124 4.79787C20.3783 4.18517 21.1135 3.41726 21.6936 2.5268H21.6772L21.6854 2.51863Z" fill="white"/>
</svg>
